<svg width="129" height="24" viewBox="0 0 129 24" fill="none" xmlns="http://www.w3.org/2000/svg">
<g clip-path="url(#clip0_806_72)">
<path d="M40.6933 15.7458C41.6637 16.7184 42.8357 17.2047 44.2093 17.2047C45.5828 17.2047 46.7477 16.7184 47.7031 15.7458C48.6735 14.7584 49.1587 13.5721 49.1587 12.1869C49.1587 10.8016 48.6735 9.62265 47.7031 8.65C46.7477 7.66265 45.5828 7.16896 44.2093 7.16896C42.8357 7.16896 41.6637 7.66265 40.6933 8.65C39.7379 9.62265 39.2602 10.8016 39.2602 12.1869C39.2602 13.5721 39.7379 14.7584 40.6933 15.7458ZM50.0098 17.9342C48.4125 19.511 46.4787 20.2995 44.2093 20.2995C41.9398 20.2995 39.9989 19.511 38.3866 17.9342C36.789 16.3427 35.9902 14.4269 35.9902 12.1869C35.9902 9.94687 36.789 8.03844 38.3866 6.46157C39.9989 4.87 41.9398 4.07422 44.2093 4.07422C46.4787 4.07422 48.4125 4.87 50.0098 6.46157C51.6222 8.03844 52.4288 9.94687 52.4288 12.1869C52.4288 14.4269 51.6222 16.3427 50.0098 17.9342Z" fill="#1B232F"/>
<path d="M54.5957 20.0343V3.89746H57.6642V20.0343H54.5957Z" fill="#1B232F"/>
<path d="M65.0211 24.3227H61.684L63.8789 19.4153L59.1758 8.98169H62.5351L65.5361 16.1438L68.5145 8.98169H71.8964L65.0211 24.3227Z" fill="#1B232F"/>
<path d="M87.4921 20.0343V14.1985C87.4921 12.4154 86.8502 11.5238 85.5663 11.5238C84.5954 11.5238 83.8789 11.9585 83.4163 12.828C83.4758 13.0785 83.5055 13.3585 83.5055 13.668V20.0343H80.4375V14.1985C80.4375 12.4154 79.7955 11.5238 78.5116 11.5238C78.0784 11.5238 77.6753 11.6343 77.3019 11.8554C76.929 12.0617 76.6453 12.3417 76.4509 12.6954V20.0343H73.3828V8.9817H76.4509V9.84379C77.1079 9.10696 78.0189 8.73853 79.1833 8.73853C80.4525 8.73853 81.5051 9.22483 82.3411 10.1975C83.1921 9.22483 84.4089 8.73853 85.9916 8.73853C87.4996 8.73853 88.6344 9.19535 89.3957 10.109C90.1722 11.0227 90.5602 12.209 90.5602 13.668V20.0343H87.4921Z" fill="#1B232F"/>
<path d="M93.373 24.3227V8.9817H96.4411V9.77748C97.1727 9.08483 98.1285 8.73853 99.3077 8.73853C100.92 8.73853 102.242 9.30588 103.272 10.4406C104.317 11.5606 104.84 12.9164 104.84 14.508C104.84 16.0996 104.317 17.4627 103.272 18.5975C102.242 19.7175 100.92 20.2775 99.3077 20.2775C98.1134 20.2775 97.1577 19.9238 96.4411 19.2164V24.3227H93.373ZM98.8597 17.5143C99.6961 17.5143 100.375 17.227 100.898 16.6522C101.42 16.0627 101.682 15.348 101.682 14.508C101.682 13.668 101.42 12.9606 100.898 12.3859C100.375 11.7964 99.6961 11.5017 98.8597 11.5017C97.8448 11.5017 97.0382 11.8996 96.4411 12.6954V16.2985C97.0382 17.1091 97.8448 17.5143 98.8597 17.5143Z" fill="#1B232F"/>
<path d="M117.32 8.98169V20.0343H114.251V19.1501C113.52 19.9017 112.601 20.2775 111.497 20.2775C110.078 20.2775 108.966 19.8353 108.16 18.9511C107.369 18.0522 106.973 16.8659 106.973 15.3922V8.98169H110.041V14.8838C110.041 16.6375 110.743 17.5143 112.146 17.5143C112.997 17.5143 113.699 17.0943 114.251 16.2543V8.98169H117.32Z" fill="#1B232F"/>
<path d="M124.035 20.2775C121.915 20.2775 120.377 19.5701 119.422 18.1554L121.527 16.387C122.065 17.2417 122.901 17.669 124.035 17.669C124.379 17.669 124.67 17.6027 124.909 17.4701C125.148 17.3375 125.267 17.1385 125.267 16.8733C125.267 16.6375 125.162 16.4459 124.953 16.2985C124.759 16.1364 124.364 15.9743 123.767 15.8122L122.938 15.6133C121.908 15.348 121.124 14.9059 120.586 14.287C120.064 13.668 119.817 12.9311 119.847 12.0764C119.877 11.0743 120.28 10.2711 121.057 9.66696C121.848 9.048 122.848 8.73853 124.058 8.73853C125.775 8.73853 127.066 9.35748 127.932 10.5954L125.917 12.209C125.394 11.5606 124.759 11.2364 124.013 11.2364C123.714 11.2364 123.453 11.3027 123.229 11.4354C123.005 11.568 122.893 11.7522 122.893 11.988C122.893 12.4301 123.259 12.747 123.99 12.9385L125.043 13.248C127.208 13.8227 128.29 14.9648 128.29 16.6743C128.29 17.7206 127.887 18.5827 127.081 19.2606C126.275 19.9385 125.26 20.2775 124.035 20.2775Z" fill="#1B232F"/>
<path fill-rule="evenodd" clip-rule="evenodd" d="M14.5503 22.3949C14.5504 22.3949 14.5504 22.3949 14.5504 22.3949V23.5789H23.8887V20.2565H19.2772C22.0517 18.1816 23.8343 14.9562 23.8343 11.334C23.8343 5.0744 18.511 0 11.9443 0C5.37761 0 0.0542876 5.0744 0.0542876 11.334C0.0542876 14.9562 1.83687 18.1816 4.61145 20.2565H0V23.5789H9.33827V23.5254H9.33823V19.1134C5.93572 18.0563 3.47467 14.9849 3.47467 11.3608C3.47467 6.86216 7.26663 3.21532 11.9443 3.21532C16.6219 3.21532 20.4139 6.86216 20.4139 11.3608C20.4139 14.9849 17.9528 18.0563 14.5503 19.1134V22.3949Z" fill="#1B232F"/>
</g>
<defs>
<clipPath id="clip0_806_72">
<rect width="129" height="24" fill="white"/>
</clipPath>
</defs>
</svg>
