<svg width="381" height="72" viewBox="0 0 381 72" fill="none" xmlns="http://www.w3.org/2000/svg">
<path d="M120.77 46.1565C123.65 49.0076 127.128 50.4331 131.205 50.4331C135.281 50.4331 138.738 49.0076 141.573 46.1565C144.454 43.2624 145.894 39.785 145.894 35.7245C145.894 31.6638 144.454 28.2081 141.573 25.3571C138.738 22.4629 135.281 21.0158 131.205 21.0158C127.128 21.0158 123.65 22.4629 120.77 25.3571C117.934 28.2081 116.517 31.6638 116.517 35.7245C116.517 39.785 117.934 43.2624 120.77 46.1565ZM148.419 52.5713C143.679 57.1934 137.94 59.5045 131.205 59.5045C124.469 59.5045 118.709 57.1934 113.924 52.5713C109.183 47.9061 106.812 42.2905 106.812 35.7245C106.812 29.1585 109.183 23.5644 113.924 18.9422C118.709 14.277 124.469 11.9443 131.205 11.9443C137.94 11.9443 143.679 14.277 148.419 18.9422C153.205 23.5644 155.598 29.1585 155.598 35.7245C155.598 42.2905 153.205 47.9061 148.419 52.5713Z" fill="#EFE9E0"/>
<path d="M162.029 58.7248V11.4238H171.136V58.7248H162.029Z" fill="#EFE9E0"/>
<path d="M192.969 71.2955H183.066L189.579 56.9107L175.622 26.3271H185.591L194.498 47.321L203.337 26.3271H213.374L192.969 71.2955Z" fill="#EFE9E0"/>
<path d="M259.661 58.7249V41.6188C259.661 36.3919 257.756 33.7785 253.946 33.7785C251.065 33.7785 248.938 35.0529 247.565 37.6015C247.742 38.3358 247.83 39.1566 247.83 40.0638V58.7249H238.724V41.6188C238.724 36.3919 236.819 33.7785 233.009 33.7785C231.723 33.7785 230.527 34.1025 229.419 34.7504C228.312 35.3552 227.47 36.1759 226.893 37.2127V58.7249H217.788V26.3271H226.893V28.854C228.843 26.6942 231.547 25.6143 235.002 25.6143C238.769 25.6143 241.893 27.0397 244.374 29.8908C246.9 27.0397 250.511 25.6143 255.208 25.6143C259.684 25.6143 263.051 26.9533 265.311 29.6316C267.615 32.3099 268.767 35.7872 268.767 40.0638V58.7249H259.661Z" fill="#EFE9E0"/>
<path d="M277.114 71.2954V26.3271H286.219V28.6597C288.391 26.6294 291.227 25.6143 294.727 25.6143C299.513 25.6143 303.434 27.2773 306.492 30.6035C309.594 33.8865 311.144 37.8606 311.144 42.526C311.144 47.1913 309.594 51.1871 306.492 54.5132C303.434 57.7962 299.513 59.4377 294.727 59.4377C291.182 59.4377 288.346 58.401 286.219 56.3274V71.2954H277.114ZM293.397 51.3382C295.879 51.3382 297.895 50.4959 299.446 48.8112C300.997 47.0833 301.773 44.9882 301.773 42.526C301.773 40.0638 300.997 37.9902 299.446 36.3055C297.895 34.5776 295.879 33.7138 293.397 33.7138C290.385 33.7138 287.991 34.88 286.219 37.2127V47.7745C287.991 50.1503 290.385 51.3382 293.397 51.3382Z" fill="#EFE9E0"/>
<path d="M348.181 26.3271V58.725H339.076V56.1332C336.905 58.3362 334.179 59.4378 330.901 59.4378C326.691 59.4378 323.389 58.1418 320.997 55.55C318.649 52.915 317.474 49.4376 317.474 45.1179V26.3271H326.58V43.6276C326.58 48.7681 328.662 51.3383 332.828 51.3383C335.354 51.3383 337.436 50.1072 339.076 47.6449V26.3271H348.181Z" fill="#EFE9E0"/>
<path d="M368.113 59.4377C361.82 59.4377 357.256 57.3642 354.421 53.2173L360.669 48.0337C362.264 50.539 364.745 51.7918 368.113 51.7918C369.132 51.7918 369.996 51.5974 370.704 51.2086C371.414 50.8199 371.769 50.2367 371.769 49.4591C371.769 48.768 371.458 48.2064 370.837 47.7745C370.262 47.2992 369.088 46.8241 367.316 46.349L364.856 45.7658C361.798 44.9882 359.472 43.6923 357.877 41.8781C356.326 40.0638 355.595 37.9038 355.683 35.3984C355.773 32.461 356.969 30.1067 359.272 28.3357C361.621 26.5214 364.59 25.6143 368.179 25.6143C373.275 25.6143 377.108 27.4286 379.678 31.0571L373.696 35.7872C372.144 33.8865 370.262 32.9361 368.047 32.9361C367.16 32.9361 366.384 33.1306 365.72 33.5193C365.055 33.9081 364.723 34.4481 364.723 35.1393C364.723 36.4351 365.808 37.3639 367.98 37.9255L371.104 38.8326C377.529 40.5173 380.741 43.8651 380.741 48.876C380.741 51.9429 379.545 54.47 377.152 56.457C374.76 58.4442 371.746 59.4377 368.113 59.4377Z" fill="#EFE9E0"/>
<path fill-rule="evenodd" clip-rule="evenodd" d="M43.1826 65.6447C43.1827 65.6447 43.1827 65.6447 43.1828 65.6447V69.1156H70.8972V59.3766H57.211C65.4454 53.2946 70.7358 43.8403 70.7358 33.2226C70.7358 14.8743 54.9372 0 35.4485 0C15.9597 0 0.161115 14.8743 0.161115 33.2226C0.161115 43.8403 5.45149 53.2946 13.6859 59.3766H0V69.1156H27.7142V68.9585H27.7141V56.0259C17.6161 52.9272 10.3122 43.9244 10.3122 33.3011C10.3122 20.1147 21.566 9.42487 35.4483 9.42487C49.3307 9.42487 60.5845 20.1147 60.5845 33.3011C60.5845 43.9244 53.2806 52.9272 43.1826 56.0259V65.6447Z" fill="#EFE9E0"/>
</svg>
