<svg width="50" height="49" viewBox="0 0 50 49" fill="none" xmlns="http://www.w3.org/2000/svg">
<path fill-rule="evenodd" clip-rule="evenodd" d="M41.7247 38.4165C39.2093 34.4938 35.3613 31.6336 30.9477 30.2582C33.2533 28.5048 34.763 25.7963 34.763 22.7246C34.763 17.4504 30.3861 13.1585 25.0008 13.1585C19.6188 13.1585 15.2391 17.4504 15.2391 22.7246C15.2391 25.7963 16.7488 28.5082 19.0538 30.2582C14.6408 31.6335 10.7922 34.4938 8.27745 38.4165C5.0187 34.6604 3.03779 29.8059 3.03779 24.5018C3.03779 12.6313 12.891 2.97478 25.0005 2.97478C37.11 2.97478 46.9632 12.6306 46.9632 24.5018C46.9632 29.8059 44.983 34.6604 41.7241 38.4165H41.7247ZM18.276 22.7247C18.276 19.0904 21.2919 16.1351 25.0003 16.1351C28.7087 16.1351 31.7252 19.0906 31.7252 22.7247C31.7252 26.3589 28.7089 29.315 25.0003 29.315C21.2918 29.315 18.276 26.359 18.276 22.7247ZM25.0003 46.0221C19.3997 46.0221 14.3003 43.9414 10.4183 40.5486C10.455 40.501 10.5155 40.4772 10.5488 40.4202C13.5438 35.4079 19.0778 32.2918 25.0004 32.2918C30.9203 32.2918 36.4576 35.4078 39.449 40.4173C39.4824 40.4738 39.5338 40.5065 39.5733 40.5574C35.6919 43.9447 30.5953 46.0221 25 46.0221L25.0003 46.0221ZM25 0C11.2168 0 0 10.9924 0 24.5035C0 38.0107 11.2171 49 25 49C38.7838 49 50 38.011 50 24.5035C50 10.9931 38.7835 0 25 0Z" fill="#141722"/>
</svg>
