<svg width="50" height="50" viewBox="0 0 50 50" fill="none" xmlns="http://www.w3.org/2000/svg">
<circle cx="25" cy="25" r="25" fill="#EFE9E0"/>
<path d="M35 19.8942C34.2642 20.2158 33.4733 20.4323 32.6433 20.5299C33.4908 20.0304 34.1417 19.2387 34.4475 18.2953C33.655 18.758 32.7767 19.0943 31.8417 19.2756C31.0942 18.4906 30.0267 18 28.8467 18C26.1975 18 24.2508 20.4331 24.8492 22.959C21.44 22.7908 18.4167 21.1829 16.3925 18.7391C15.3175 20.5546 15.835 22.9294 17.6617 24.1321C16.99 24.1107 16.3567 23.9295 15.8042 23.6267C15.7592 25.4979 17.1217 27.2486 19.095 27.6382C18.5175 27.7925 17.885 27.8285 17.2417 27.7071C17.7633 29.3117 19.2783 30.4791 21.075 30.5119C19.35 31.8433 17.1767 32.4381 15 32.1854C16.8158 33.3314 18.9733 34 21.29 34C28.9083 34 33.2125 27.6661 32.9525 21.9852C33.7542 21.4151 34.45 20.7039 35 19.8942Z" fill="#243146"/>
</svg>
