<svg width="50" height="50" viewBox="0 0 50 50" fill="none" xmlns="http://www.w3.org/2000/svg">
<circle cx="25" cy="25" r="25" fill="#EFE9E0"/>
<path d="M27.238 28.348C27.323 28.432 27.323 28.569 27.238 28.654C26.773 29.116 26.044 29.341 25.007 29.341L24.999 29.339L24.991 29.341C23.955 29.341 23.225 29.116 22.76 28.653C22.675 28.569 22.675 28.432 22.76 28.348C22.844 28.264 22.982 28.264 23.067 28.348C23.446 28.725 24.075 28.909 24.991 28.909L24.999 28.911L25.007 28.909C25.922 28.909 26.551 28.725 26.931 28.348C27.016 28.264 27.154 28.264 27.238 28.348ZM23.798 25.93C23.798 25.423 23.384 25.011 22.876 25.011C22.367 25.011 21.953 25.423 21.953 25.93C21.953 26.436 22.367 26.848 22.876 26.848C23.384 26.849 23.798 26.437 23.798 25.93ZM37 25C37 31.627 31.627 37 25 37C18.373 37 13 31.627 13 25C13 18.373 18.373 13 25 13C31.627 13 37 18.373 37 25ZM32 24.871C32 24.02 31.305 23.328 30.45 23.328C30.033 23.328 29.655 23.495 29.376 23.763C28.32 23.068 26.891 22.626 25.31 22.569L26.175 19.845L28.518 20.394L28.515 20.428C28.515 21.124 29.084 21.69 29.783 21.69C30.482 21.69 31.05 21.124 31.05 20.428C31.05 19.732 30.482 19.166 29.783 19.166C29.246 19.166 28.789 19.501 28.604 19.97L26.079 19.378C25.969 19.351 25.856 19.415 25.822 19.523L24.857 22.561C23.201 22.581 21.702 23.027 20.599 23.742C20.322 23.487 19.955 23.327 19.549 23.327C18.695 23.328 18 24.02 18 24.871C18 25.437 18.311 25.927 18.768 26.196C18.738 26.36 18.718 26.527 18.718 26.696C18.718 28.977 21.523 30.833 24.971 30.833C28.419 30.833 31.224 28.977 31.224 26.696C31.224 26.536 31.207 26.379 31.18 26.224C31.666 25.963 32 25.458 32 24.871ZM27.128 25.012C26.619 25.012 26.206 25.424 26.206 25.931C26.206 26.437 26.62 26.849 27.128 26.849C27.636 26.849 28.05 26.437 28.05 25.931C28.05 25.424 27.637 25.012 27.128 25.012Z" fill="#243146"/>
</svg>
