<svg width="50" height="50" viewBox="0 0 50 50" fill="none" xmlns="http://www.w3.org/2000/svg">
<circle cx="25" cy="25" r="25" fill="#EFE9E0"/>
<path fill-rule="evenodd" clip-rule="evenodd" d="M31.284 15C32.414 15 33.334 15.92 33.334 17.06V35L31.184 33.1L29.974 31.98L28.694 30.79L29.224 32.64H17.884C16.754 32.64 15.834 31.72 15.834 30.58V17.06C15.834 15.92 16.754 15 17.884 15H31.284V15ZM27.424 28.06C29.634 27.99 30.484 26.54 30.484 26.54C30.484 23.32 29.044 20.71 29.044 20.71C27.604 19.63 26.234 19.66 26.234 19.66L26.094 19.82C27.794 20.34 28.584 21.09 28.584 21.09C27.544 20.52 26.524 20.24 25.574 20.13C24.854 20.05 24.164 20.07 23.554 20.15L23.384 20.17C23.034 20.2 22.184 20.33 21.114 20.8C20.744 20.97 20.524 21.09 20.524 21.09C20.524 21.09 21.354 20.3 23.154 19.78L23.054 19.66C23.054 19.66 21.684 19.63 20.244 20.71C20.244 20.71 18.804 23.32 18.804 26.54C18.804 26.54 19.644 27.99 21.854 28.06C21.854 28.06 22.224 27.61 22.524 27.23C21.254 26.85 20.774 26.05 20.774 26.05L21.054 26.22L21.094 26.25L21.1332 26.2725L21.1448 26.2775L21.184 26.3C21.434 26.44 21.684 26.55 21.914 26.64C22.324 26.8 22.814 26.96 23.384 27.07C24.134 27.21 25.014 27.26 25.974 27.08C26.444 27 26.924 26.86 27.424 26.65C27.774 26.52 28.164 26.33 28.574 26.06C28.574 26.06 28.074 26.88 26.764 27.25C27.064 27.63 27.424 28.06 27.424 28.06ZM22.774 23.39C22.204 23.39 21.754 23.89 21.754 24.5C21.754 25.11 22.214 25.61 22.774 25.61C23.344 25.61 23.794 25.11 23.794 24.5C23.804 23.89 23.344 23.39 22.774 23.39ZM26.424 23.39C25.854 23.39 25.404 23.89 25.404 24.5C25.404 25.11 25.864 25.61 26.424 25.61C26.994 25.61 27.444 25.11 27.444 24.5C27.444 23.89 26.994 23.39 26.424 23.39Z" fill="#243146"/>
</svg>
