<svg width="50" height="50" viewBox="0 0 50 50" fill="none" xmlns="http://www.w3.org/2000/svg">
<circle cx="25" cy="25" r="25" fill="#EFE9E0"/>
<path d="M25 13C18.374 13 13 18.373 13 25C13 30.302 16.438 34.8 21.207 36.387C21.806 36.498 22 36.126 22 35.81V33.576C18.662 34.302 17.967 32.16 17.967 32.16C17.421 30.773 16.634 30.404 16.634 30.404C15.545 29.659 16.717 29.675 16.717 29.675C17.922 29.759 18.556 30.912 18.556 30.912C19.626 32.746 21.363 32.216 22.048 31.909C22.155 31.134 22.466 30.604 22.81 30.305C20.145 30 17.343 28.971 17.343 24.374C17.343 23.063 17.812 21.993 18.579 21.153C18.455 20.85 18.044 19.629 18.696 17.977C18.696 17.977 19.704 17.655 21.997 19.207C22.954 18.941 23.98 18.808 25 18.803C26.02 18.808 27.047 18.941 28.006 19.207C30.297 17.655 31.303 17.977 31.303 17.977C31.956 19.63 31.545 20.851 31.421 21.153C32.191 21.993 32.656 23.064 32.656 24.374C32.656 28.983 29.849 29.998 27.177 30.295C27.607 30.667 28 31.397 28 32.517V35.81C28 36.129 28.192 36.504 28.801 36.386C33.566 34.797 37 30.3 37 25C37 18.373 31.627 13 25 13Z" fill="#243146"/>
</svg>
