<svg width="50" height="50" viewBox="0 0 50 50" fill="none" xmlns="http://www.w3.org/2000/svg">
<circle cx="25" cy="25" r="25" fill="#EFE9E0"/>
<path fill-rule="evenodd" clip-rule="evenodd" d="M30.384 34.7902C30.706 35.0068 31.121 35.061 31.491 34.928C31.8609 34.794 32.1329 34.4938 32.2149 34.13C33.0839 30.2502 35.1919 20.43 35.9829 16.9007C36.0429 16.6347 35.9429 16.3583 35.7229 16.1806C35.5029 16.003 35.1979 15.9517 34.9259 16.0476C30.733 17.522 17.8203 22.1248 12.5424 23.9801C12.2074 24.0979 11.9894 24.4039 12.0004 24.7392C12.0124 25.0755 12.2504 25.3672 12.5934 25.465C14.9603 26.1376 18.0673 27.0734 18.0673 27.0734C18.0673 27.0734 19.5192 31.2391 20.2762 33.3576C20.3712 33.6236 20.5902 33.8326 20.8792 33.9048C21.1672 33.9761 21.4752 33.901 21.6902 33.7082C22.9061 32.6176 24.7861 30.9313 24.7861 30.9313C24.7861 30.9313 28.358 33.4194 30.384 34.7902ZM19.3742 26.5471L21.0532 31.8082L21.4262 28.4765C21.4262 28.4765 27.913 22.918 31.611 19.7498C31.719 19.6567 31.7339 19.5009 31.644 19.3916C31.555 19.2824 31.391 19.2567 31.268 19.3308C26.9821 21.931 19.3742 26.5471 19.3742 26.5471Z" fill="#243146"/>
</svg>
