<svg width="50" height="50" viewBox="0 0 50 50" fill="none" xmlns="http://www.w3.org/2000/svg">
<circle cx="25" cy="25" r="23.5" stroke="#141722" stroke-width="3"/>
<path d="M20.6404 22.5394C20.9697 22.2101 21.3349 21.9386 21.7234 21.7241C23.8887 20.5309 26.6652 21.1654 28.0572 23.2759L26.3727 24.9596C25.8897 23.8579 24.6904 23.2309 23.4972 23.4979C23.0479 23.5984 22.6212 23.8226 22.2724 24.1714L19.0444 27.4009C18.0642 28.3811 18.0642 29.9756 19.0444 30.9559C20.0247 31.9361 21.6192 31.9361 22.5994 30.9559L23.5947 29.9606C24.4999 30.3199 25.4704 30.4631 26.4289 30.3919L24.2322 32.5886C22.3489 34.4719 19.2957 34.4719 17.4124 32.5886C15.5292 30.7054 15.5292 27.6521 17.4124 25.7689L20.6404 22.5394V22.5394ZM25.7674 17.4124L23.5707 19.6091C24.5284 19.5371 25.4997 19.6811 26.4049 20.0396L27.3994 19.0451C28.3797 18.0649 29.9742 18.0649 30.9544 19.0451C31.9347 20.0254 31.9347 21.6199 30.9544 22.6001L27.7257 25.8289C26.7424 26.8121 25.1457 26.8039 24.1707 25.8289C23.9434 25.6016 23.7477 25.3189 23.6254 25.0406L21.9409 26.7244C22.1179 26.9929 22.3017 27.2246 22.5379 27.4609C23.1469 28.0699 23.9224 28.5236 24.8149 28.7389C25.9714 29.0171 27.2104 28.8634 28.2747 28.2761C28.6632 28.0616 29.0284 27.7901 29.3577 27.4609L32.5857 24.2321C34.4697 22.3489 34.4697 19.2956 32.5864 17.4124C30.7032 15.5299 27.6507 15.5299 25.7674 17.4124V17.4124Z" fill="#141722"/>
</svg>
