<svg width="50" height="50" viewBox="0 0 50 50" fill="none" xmlns="http://www.w3.org/2000/svg">
<circle cx="25" cy="25" r="23.5" stroke="#141722" stroke-width="3"/>
<path d="M35 18.8942C34.2642 19.2158 33.4733 19.4323 32.6433 19.5299C33.4908 19.0304 34.1417 18.2387 34.4475 17.2953C33.655 17.758 32.7767 18.0943 31.8417 18.2756C31.0942 17.4906 30.0267 17 28.8467 17C26.1975 17 24.2508 19.4331 24.8492 21.959C21.44 21.7908 18.4167 20.1829 16.3925 17.7391C15.3175 19.5546 15.835 21.9294 17.6617 23.1321C16.99 23.1107 16.3567 22.9294 15.8042 22.6267C15.7592 24.4979 17.1217 26.2486 19.095 26.6382C18.5175 26.7925 17.885 26.8285 17.2417 26.7071C17.7633 28.3117 19.2783 29.4791 21.075 29.5119C19.35 30.8433 17.1767 31.4381 15 31.1854C16.8158 32.3314 18.9733 33 21.29 33C28.9083 33 33.2125 26.6661 32.9525 20.9852C33.7542 20.4151 34.45 19.7039 35 18.8942V18.8942Z" fill="#141722"/>
</svg>
