<svg width="50" height="50" viewBox="0 0 50 50" fill="none" xmlns="http://www.w3.org/2000/svg">
<circle cx="25" cy="25" r="23.5" stroke="#141722" stroke-width="3"/>
<path d="M27.0515 28.069C27.1294 28.146 27.1294 28.2716 27.0515 28.3495C26.6253 28.773 25.957 28.9792 25.0064 28.9792L24.9991 28.9774L24.9918 28.9792C24.0421 28.9792 23.3729 28.773 22.9467 28.3486C22.8688 28.2716 22.8688 28.146 22.9467 28.069C23.0237 27.992 23.1502 27.992 23.2281 28.069C23.5755 28.4146 24.1521 28.5833 24.9918 28.5833L24.9991 28.5851L25.0064 28.5833C25.8452 28.5833 26.4218 28.4146 26.7701 28.069C26.848 27.992 26.9745 27.992 27.0515 28.069ZM23.8982 25.8525C23.8982 25.3878 23.5187 25.0101 23.053 25.0101C22.5864 25.0101 22.2069 25.3878 22.2069 25.8525C22.2069 26.3163 22.5864 26.694 23.053 26.694C23.5187 26.6949 23.8982 26.3173 23.8982 25.8525ZM36 25C36 31.0748 31.0748 36 25 36C18.9253 36 14 31.0748 14 25C14 18.9253 18.9253 14 25 14C31.0748 14 36 18.9253 36 25ZM31.4167 24.8818C31.4167 24.1017 30.7796 23.4673 29.9958 23.4673C29.6136 23.4673 29.2671 23.6204 29.0113 23.8661C28.0433 23.229 26.7334 22.8238 25.2842 22.7716L26.0771 20.2746L28.2248 20.7778L28.2221 20.809C28.2221 21.447 28.7437 21.9658 29.3844 21.9658C30.0252 21.9658 30.5458 21.447 30.5458 20.809C30.5458 20.171 30.0252 19.6522 29.3844 19.6522C28.8922 19.6522 28.4733 19.9592 28.3037 20.3892L25.9891 19.8465C25.8883 19.8217 25.7847 19.8804 25.7535 19.9794L24.8689 22.7643C23.3509 22.7826 21.9768 23.1914 20.9658 23.8468C20.7118 23.6131 20.3754 23.4664 20.0032 23.4664C19.2204 23.4673 18.5833 24.1017 18.5833 24.8818C18.5833 25.4006 18.8684 25.8498 19.2873 26.0963C19.2598 26.2467 19.2415 26.3998 19.2415 26.5547C19.2415 28.6456 21.8127 30.3469 24.9734 30.3469C28.1341 30.3469 30.7053 28.6456 30.7053 26.5547C30.7053 26.408 30.6898 26.2641 30.665 26.122C31.1105 25.8828 31.4167 25.4198 31.4167 24.8818V24.8818ZM26.9507 25.011C26.4841 25.011 26.1055 25.3887 26.1055 25.8534C26.1055 26.3173 26.485 26.6949 26.9507 26.6949C27.4163 26.6949 27.7958 26.3173 27.7958 25.8534C27.7958 25.3887 27.4173 25.011 26.9507 25.011Z" fill="#141722"/>
</svg>
