<svg width="126" height="30" viewBox="0 0 126 30" fill="none" xmlns="http://www.w3.org/2000/svg">
<path d="M25 14C24.4477 14 24 14.4477 24 15C24 15.5523 24.4477 16 25 16L25 14ZM125 16C125.552 16 126 15.5523 126 15C126 14.4477 125.552 14 125 14L125 16ZM28.125 16C28.6773 16 29.125 15.5523 29.125 15C29.125 14.4477 28.6773 14 28.125 14L28.125 16ZM38.5417 14C37.9894 14 37.5417 14.4477 37.5417 15C37.5417 15.5523 37.9894 16 38.5417 16L38.5417 14ZM44.7917 16C45.344 16 45.7917 15.5523 45.7917 15C45.7917 14.4477 45.344 14 44.7917 14L44.7917 16ZM55.2083 14C54.6561 14 54.2083 14.4477 54.2083 15C54.2083 15.5523 54.6561 16 55.2083 16L55.2083 14ZM61.4583 16C62.0106 16 62.4583 15.5523 62.4583 15C62.4583 14.4477 62.0106 14 61.4583 14L61.4583 16ZM71.875 14C71.3227 14 70.875 14.4477 70.875 15C70.875 15.5523 71.3227 16 71.875 16L71.875 14ZM78.125 16C78.6773 16 79.125 15.5523 79.125 15C79.125 14.4477 78.6773 14 78.125 14L78.125 16ZM88.5417 14C87.9894 14 87.5417 14.4477 87.5417 15C87.5417 15.5523 87.9894 16 88.5417 16L88.5417 14ZM94.7917 16C95.344 16 95.7917 15.5523 95.7917 15C95.7917 14.4477 95.344 14 94.7917 14L94.7917 16ZM105.208 14C104.656 14 104.208 14.4477 104.208 15C104.208 15.5523 104.656 16 105.208 16L105.208 14ZM111.458 16C112.011 16 112.458 15.5523 112.458 15C112.458 14.4477 112.011 14 111.458 14L111.458 16ZM121.875 14C121.323 14 120.875 14.4477 120.875 15C120.875 15.5523 121.323 16 121.875 16L121.875 14ZM25 16L28.125 16L28.125 14L25 14L25 16ZM38.5417 16L44.7917 16L44.7917 14L38.5417 14L38.5417 16ZM55.2083 16L61.4583 16L61.4583 14L55.2083 14L55.2083 16ZM71.875 16L78.125 16L78.125 14L71.875 14L71.875 16ZM88.5417 16L94.7917 16L94.7917 14L88.5417 14L88.5417 16ZM105.208 16L111.458 16L111.458 14L105.208 14L105.208 16ZM121.875 16L125 16L125 14L121.875 14L121.875 16Z" fill="url(#paint0_linear_902_136)"/>
<circle cx="15" cy="15" r="14" fill="#1B232F" stroke="#EFE9E0" stroke-width="2"/>
<circle cx="15" cy="15" r="7" fill="#EFE9E0"/>
<defs>
<linearGradient id="paint0_linear_902_136" x1="59.9035" y1="16.9973" x2="125" y2="18.0004" gradientUnits="userSpaceOnUse">
<stop stop-color="#EFE9E0"/>
<stop offset="1" stop-color="#1B232F"/>
</linearGradient>
</defs>
</svg>
