<svg width="44" height="43" viewBox="0 0 44 43" fill="none" xmlns="http://www.w3.org/2000/svg">
<path d="M22.5 43C34.3741 43 44 33.3741 44 21.5C44 9.62588 34.3741 0 22.5 0C10.6259 0 1 9.62588 1 21.5C1 33.3741 10.6259 43 22.5 43Z" fill="#080B3A"/>
<path fill-rule="evenodd" clip-rule="evenodd" d="M25.7359 15.0752C25.4482 14.378 25.0859 13.2224 24.9313 12.5072C24.7764 11.792 24.593 10.4017 24.5237 9.41791L24.3974 7.62891L22.4902 8.88928C20.2817 10.3485 17.9314 12.6202 16.5393 14.6412C15.2996 16.4408 14.1735 18.8684 13.7038 20.7534C13.4065 21.9462 13.316 22.8232 13.3109 24.5576C13.3053 26.4435 13.3703 27.024 13.7084 28.112C14.2199 29.7573 15.0976 31.4355 15.9916 32.4775C16.9234 33.5638 18.5435 34.6192 19.9424 35.0513C20.7719 35.3074 21.5745 35.406 22.8513 35.4087C24.1954 35.4114 24.8775 35.3247 25.7198 35.0435C26.3276 34.8407 27.1555 34.4828 27.5595 34.2482C30.2754 32.6718 32.0174 28.9171 31.473 25.8124C31.3688 25.2177 31.1153 24.2874 30.9098 23.7454C30.7044 23.2034 29.5739 21.3161 28.3978 19.5515C27.2215 17.7868 26.0237 15.7726 25.7359 15.0752ZM21.7485 16.6806C21.8177 14.9286 21.9007 14.4885 22.4033 13.2054L22.9787 11.7361L23.3854 13.268C23.609 14.1105 24.0917 15.4348 24.4579 16.2109C24.8242 16.9872 26.0264 18.9664 27.1295 20.6092C29.568 24.2415 29.9359 25.1675 29.8253 27.3937C29.7676 28.5562 29.6413 29.1347 29.2623 29.9732C28.6828 31.2555 27.4902 32.4474 26.1724 33.0609C25.673 33.2933 25.1705 33.4844 25.0559 33.4853C24.9259 33.4864 25.0145 33.1652 25.2917 32.6307C25.8887 31.4801 26.0097 29.9118 25.623 28.3341C25.4618 27.6763 24.9809 26.5184 24.5542 25.7611C23.1922 23.3437 22.3965 21.562 22.028 20.1048C21.7344 18.9437 21.6837 18.3227 21.7485 16.6806ZM17.9086 15.5173C18.319 14.9583 19.1207 14.0132 19.6903 13.4168C20.2599 12.8203 20.7532 12.3594 20.7863 12.3928C20.8195 12.4258 20.729 12.7867 20.5851 13.1943C20.4412 13.6019 20.2304 14.6352 20.1166 15.4903C19.9575 16.6862 19.9566 17.4164 20.1129 18.6538C20.3604 20.614 21.088 22.815 22.0797 24.6048C23.6931 27.5163 24.0102 28.2856 24.0971 29.5C24.1458 30.1797 24.0931 30.9282 23.9705 31.2995C23.7136 32.0784 23.0476 32.8938 22.3915 33.2332C21.7472 33.5664 20.5324 33.556 19.6937 33.2101C18.5688 32.7461 17.2823 31.6572 16.532 30.5339C15.6798 29.2576 15.0281 27.2947 14.8618 25.5025C14.725 24.0303 14.9674 22.0658 15.5018 20.3134C15.956 18.8238 16.9821 16.7791 17.9086 15.5173Z" fill="#4DD9F6"/>
</svg>
