<svg width="406" height="30" viewBox="0 0 406 30" fill="none" xmlns="http://www.w3.org/2000/svg">
<path d="M24 13C23.4477 13 23 13.4477 23 14C23 14.5523 23.4477 15 24 15V13ZM402 15C402.552 15 403 14.5523 403 14C403 13.4477 402.552 13 402 13V15ZM26.9531 15C27.5054 15 27.9531 14.5523 27.9531 14C27.9531 13.4477 27.5054 13 26.9531 13V15ZM36.7969 13C36.2446 13 35.7969 13.4477 35.7969 14C35.7969 14.5523 36.2446 15 36.7969 15V13ZM42.7031 15C43.2554 15 43.7031 14.5523 43.7031 14C43.7031 13.4477 43.2554 13 42.7031 13V15ZM52.5469 13C51.9946 13 51.5469 13.4477 51.5469 14C51.5469 14.5523 51.9946 15 52.5469 15V13ZM58.4531 15C59.0054 15 59.4531 14.5523 59.4531 14C59.4531 13.4477 59.0054 13 58.4531 13V15ZM68.2969 13C67.7446 13 67.2969 13.4477 67.2969 14C67.2969 14.5523 67.7446 15 68.2969 15V13ZM74.2031 15C74.7554 15 75.2031 14.5523 75.2031 14C75.2031 13.4477 74.7554 13 74.2031 13V15ZM84.0469 13C83.4946 13 83.0469 13.4477 83.0469 14C83.0469 14.5523 83.4946 15 84.0469 15V13ZM89.9531 15C90.5054 15 90.9531 14.5523 90.9531 14C90.9531 13.4477 90.5054 13 89.9531 13V15ZM99.7969 13C99.2446 13 98.7969 13.4477 98.7969 14C98.7969 14.5523 99.2446 15 99.7969 15V13ZM105.703 15C106.255 15 106.703 14.5523 106.703 14C106.703 13.4477 106.255 13 105.703 13V15ZM115.547 13C114.995 13 114.547 13.4477 114.547 14C114.547 14.5523 114.995 15 115.547 15V13ZM121.453 15C122.005 15 122.453 14.5523 122.453 14C122.453 13.4477 122.005 13 121.453 13V15ZM131.297 13C130.745 13 130.297 13.4477 130.297 14C130.297 14.5523 130.745 15 131.297 15V13ZM137.203 15C137.755 15 138.203 14.5523 138.203 14C138.203 13.4477 137.755 13 137.203 13V15ZM147.047 13C146.495 13 146.047 13.4477 146.047 14C146.047 14.5523 146.495 15 147.047 15V13ZM152.953 15C153.505 15 153.953 14.5523 153.953 14C153.953 13.4477 153.505 13 152.953 13V15ZM162.797 13C162.245 13 161.797 13.4477 161.797 14C161.797 14.5523 162.245 15 162.797 15V13ZM168.703 15C169.255 15 169.703 14.5523 169.703 14C169.703 13.4477 169.255 13 168.703 13V15ZM178.547 13C177.995 13 177.547 13.4477 177.547 14C177.547 14.5523 177.995 15 178.547 15V13ZM184.453 15C185.005 15 185.453 14.5523 185.453 14C185.453 13.4477 185.005 13 184.453 13V15ZM194.297 13C193.745 13 193.297 13.4477 193.297 14C193.297 14.5523 193.745 15 194.297 15V13ZM200.203 15C200.755 15 201.203 14.5523 201.203 14C201.203 13.4477 200.755 13 200.203 13V15ZM210.047 13C209.495 13 209.047 13.4477 209.047 14C209.047 14.5523 209.495 15 210.047 15V13ZM215.953 15C216.505 15 216.953 14.5523 216.953 14C216.953 13.4477 216.505 13 215.953 13V15ZM225.797 13C225.245 13 224.797 13.4477 224.797 14C224.797 14.5523 225.245 15 225.797 15V13ZM231.703 15C232.255 15 232.703 14.5523 232.703 14C232.703 13.4477 232.255 13 231.703 13V15ZM241.547 13C240.995 13 240.547 13.4477 240.547 14C240.547 14.5523 240.995 15 241.547 15V13ZM247.453 15C248.005 15 248.453 14.5523 248.453 14C248.453 13.4477 248.005 13 247.453 13V15ZM257.297 13C256.745 13 256.297 13.4477 256.297 14C256.297 14.5523 256.745 15 257.297 15V13ZM263.203 15C263.755 15 264.203 14.5523 264.203 14C264.203 13.4477 263.755 13 263.203 13V15ZM273.047 13C272.495 13 272.047 13.4477 272.047 14C272.047 14.5523 272.495 15 273.047 15V13ZM278.953 15C279.505 15 279.953 14.5523 279.953 14C279.953 13.4477 279.505 13 278.953 13V15ZM288.797 13C288.245 13 287.797 13.4477 287.797 14C287.797 14.5523 288.245 15 288.797 15V13ZM294.703 15C295.255 15 295.703 14.5523 295.703 14C295.703 13.4477 295.255 13 294.703 13V15ZM304.547 13C303.995 13 303.547 13.4477 303.547 14C303.547 14.5523 303.995 15 304.547 15V13ZM310.453 15C311.005 15 311.453 14.5523 311.453 14C311.453 13.4477 311.005 13 310.453 13V15ZM320.297 13C319.745 13 319.297 13.4477 319.297 14C319.297 14.5523 319.745 15 320.297 15V13ZM326.203 15C326.755 15 327.203 14.5523 327.203 14C327.203 13.4477 326.755 13 326.203 13V15ZM336.047 13C335.495 13 335.047 13.4477 335.047 14C335.047 14.5523 335.495 15 336.047 15V13ZM341.953 15C342.505 15 342.953 14.5523 342.953 14C342.953 13.4477 342.505 13 341.953 13V15ZM351.797 13C351.245 13 350.797 13.4477 350.797 14C350.797 14.5523 351.245 15 351.797 15V13ZM357.703 15C358.255 15 358.703 14.5523 358.703 14C358.703 13.4477 358.255 13 357.703 13V15ZM367.547 13C366.995 13 366.547 13.4477 366.547 14C366.547 14.5523 366.995 15 367.547 15V13ZM373.453 15C374.005 15 374.453 14.5523 374.453 14C374.453 13.4477 374.005 13 373.453 13V15ZM383.297 13C382.745 13 382.297 13.4477 382.297 14C382.297 14.5523 382.745 15 383.297 15V13ZM389.203 15C389.755 15 390.203 14.5523 390.203 14C390.203 13.4477 389.755 13 389.203 13V15ZM399.047 13C398.495 13 398.047 13.4477 398.047 14C398.047 14.5523 398.495 15 399.047 15V13ZM24 15H26.9531V13H24V15ZM36.7969 15H42.7031V13H36.7969V15ZM52.5469 15H58.4531V13H52.5469V15ZM68.2969 15H74.2031V13H68.2969V15ZM84.0469 15H89.9531V13H84.0469V15ZM99.7969 15H105.703V13H99.7969V15ZM115.547 15H121.453V13H115.547V15ZM131.297 15H137.203V13H131.297V15ZM147.047 15H152.953V13H147.047V15ZM162.797 15H168.703V13H162.797V15ZM178.547 15H184.453V13H178.547V15ZM194.297 15H200.203V13H194.297V15ZM210.047 15H215.953V13H210.047V15ZM225.797 15H231.703V13H225.797V15ZM241.547 15H247.453V13H241.547V15ZM257.297 15H263.203V13H257.297V15ZM273.047 15H278.953V13H273.047V15ZM288.797 15H294.703V13H288.797V15ZM304.547 15H310.453V13H304.547V15ZM320.297 15H326.203V13H320.297V15ZM336.047 15H341.953V13H336.047V15ZM351.797 15H357.703V13H351.797V15ZM367.547 15H373.453V13H367.547V15ZM383.297 15H389.203V13H383.297V15ZM399.047 15H402V13H399.047V15Z" fill="#EFE9E0"/>
<circle cx="15" cy="15" r="13.5" fill="#1B232F" stroke="#EFE9E0" stroke-width="3"/>
<circle cx="15" cy="15" r="7" fill="#EFE9E0"/>
<path d="M393.063 14.125L393.063 10.0624L405.25 14.125L393.063 18.1876L393.063 14.125Z" fill="#EFE9E0"/>
</svg>
