<svg width="177" height="30" viewBox="0 0 177 30" fill="none" xmlns="http://www.w3.org/2000/svg">
<path d="M15 13C14.4477 13 14 13.4477 14 14C14 14.5523 14.4477 15 15 15L15 13ZM171 15C171.552 15 172 14.5523 172 14C172 13.4477 171.552 13 171 13L171 15ZM17.925 15C18.4773 15 18.925 14.5523 18.925 14C18.925 13.4477 18.4773 13 17.925 13L17.925 15ZM27.675 13C27.1227 13 26.675 13.4477 26.675 14C26.675 14.5523 27.1227 15 27.675 15L27.675 13ZM33.525 15C34.0773 15 34.525 14.5523 34.525 14C34.525 13.4477 34.0773 13 33.525 13L33.525 15ZM43.275 13C42.7227 13 42.275 13.4477 42.275 14C42.275 14.5523 42.7227 15 43.275 15L43.275 13ZM49.125 15C49.6773 15 50.125 14.5523 50.125 14C50.125 13.4477 49.6773 13 49.125 13L49.125 15ZM58.875 13C58.3227 13 57.875 13.4477 57.875 14C57.875 14.5523 58.3227 15 58.875 15L58.875 13ZM64.725 15C65.2773 15 65.725 14.5523 65.725 14C65.725 13.4477 65.2773 13 64.725 13L64.725 15ZM74.475 13C73.9227 13 73.475 13.4477 73.475 14C73.475 14.5523 73.9227 15 74.475 15L74.475 13ZM80.325 15C80.8773 15 81.325 14.5523 81.325 14C81.325 13.4477 80.8773 13 80.325 13L80.325 15ZM90.075 13C89.5227 13 89.075 13.4477 89.075 14C89.075 14.5523 89.5227 15 90.075 15L90.075 13ZM95.925 15C96.4773 15 96.925 14.5523 96.925 14C96.925 13.4477 96.4773 13 95.925 13L95.925 15ZM105.675 13C105.123 13 104.675 13.4477 104.675 14C104.675 14.5523 105.123 15 105.675 15L105.675 13ZM111.525 15C112.077 15 112.525 14.5523 112.525 14C112.525 13.4477 112.077 13 111.525 13L111.525 15ZM121.275 13C120.723 13 120.275 13.4477 120.275 14C120.275 14.5523 120.723 15 121.275 15L121.275 13ZM127.125 15C127.677 15 128.125 14.5523 128.125 14C128.125 13.4477 127.677 13 127.125 13L127.125 15ZM136.875 13C136.323 13 135.875 13.4477 135.875 14C135.875 14.5523 136.323 15 136.875 15L136.875 13ZM142.725 15C143.277 15 143.725 14.5523 143.725 14C143.725 13.4477 143.277 13 142.725 13L142.725 15ZM152.475 13C151.923 13 151.475 13.4477 151.475 14C151.475 14.5523 151.923 15 152.475 15L152.475 13ZM158.325 15C158.877 15 159.325 14.5523 159.325 14C159.325 13.4477 158.877 13 158.325 13L158.325 15ZM168.075 13C167.523 13 167.075 13.4477 167.075 14C167.075 14.5523 167.523 15 168.075 15L168.075 13ZM15 15L17.925 15L17.925 13L15 13L15 15ZM27.675 15L33.525 15L33.525 13L27.675 13L27.675 15ZM43.275 15L49.125 15L49.125 13L43.275 13L43.275 15ZM58.875 15L64.725 15L64.725 13L58.875 13L58.875 15ZM74.475 15L80.325 15L80.325 13L74.475 13L74.475 15ZM90.075 15L95.925 15L95.925 13L90.075 13L90.075 15ZM105.675 15L111.525 15L111.525 13L105.675 13L105.675 15ZM121.275 15L127.125 15L127.125 13L121.275 13L121.275 15ZM136.875 15L142.725 15L142.725 13L136.875 13L136.875 15ZM152.475 15L158.325 15L158.325 13L152.475 13L152.475 15ZM168.075 15L171 15L171 13L168.075 13L168.075 15Z" fill="#EFE9E0"/>
<path d="M164.063 14.125L164.063 10.0624L176.25 14.125L164.063 18.1876L164.063 14.125Z" fill="#EFE9E0"/>
<circle cx="15" cy="15" r="13.5" fill="#1B232F" stroke="#EFE9E0" stroke-width="3"/>
<circle cx="15" cy="15" r="7" fill="#EFE9E0"/>
</svg>
