<svg width="44" height="43" viewBox="0 0 44 43" fill="none" xmlns="http://www.w3.org/2000/svg">
<g clip-path="url(#clip0_901_27)">
<path d="M22 44C34.1503 44 44 34.1503 44 22C44 9.84973 34.1503 0 22 0C9.84973 0 0 9.84973 0 22C0 34.1503 9.84973 44 22 44Z" fill="#333333"/>
<path fill-rule="evenodd" clip-rule="evenodd" d="M0.898438 22C0.898438 10.3456 10.3461 0.897949 22.0005 0.897949C33.6548 0.897949 43.1026 10.3456 43.1026 22C43.1026 33.6543 33.6548 43.1021 22.0005 43.1021C10.3461 43.1021 0.898438 33.6543 0.898438 22ZM22.0005 1.93448C10.9186 1.93448 1.93497 10.9181 1.93497 22C1.93497 33.0819 10.9186 42.0655 22.0005 42.0655C33.0824 42.0655 42.066 33.0819 42.066 22C42.066 10.9181 33.0824 1.93448 22.0005 1.93448Z" fill="#F5C09A"/>
<path fill-rule="evenodd" clip-rule="evenodd" d="M21.9997 27.8369C22.2476 27.8369 22.4487 28.063 22.4487 28.342V42.5971C22.4487 42.8761 22.2476 43.1022 21.9997 43.1022C21.7518 43.1022 21.5508 42.8761 21.5508 42.5971V28.342C21.5508 28.063 21.7518 27.8369 21.9997 27.8369Z" fill="#F5C09A"/>
<path fill-rule="evenodd" clip-rule="evenodd" d="M21.9997 0.897949C22.2476 0.897949 22.4487 1.13062 22.4487 1.41764V5.76602C22.4487 6.05304 22.2476 6.2857 21.9997 6.2857C21.7518 6.2857 21.5508 6.05304 21.5508 5.76602V1.41764C21.5508 1.13062 21.7518 0.897949 21.9997 0.897949Z" fill="#F5C09A"/>
<path fill-rule="evenodd" clip-rule="evenodd" d="M21.7167 5.48716C21.8825 5.35455 22.1168 5.35454 22.2827 5.48714L35.7457 16.2517C35.855 16.339 35.9188 16.4721 35.9188 16.6129C35.9188 16.7537 35.855 16.8868 35.7457 16.9741L29.7334 21.7805C29.5359 21.9384 29.2491 21.9047 29.0928 21.7052C28.9366 21.5057 28.97 21.216 29.1674 21.058L34.7279 16.6129L21.9997 6.43592L9.27286 16.6129L22.2827 27.0147C22.4803 27.1726 22.5137 27.4623 22.3573 27.6618C22.201 27.8613 21.9142 27.8952 21.7167 27.7372L8.25506 16.9741C8.14578 16.8868 8.08204 16.7537 8.08203 16.6129C8.08203 16.4721 8.14576 16.339 8.25503 16.2517L21.7167 5.48716Z" fill="#F5C09A"/>
<path fill-rule="evenodd" clip-rule="evenodd" d="M35.5064 16.1631C35.7341 16.1631 35.9186 16.3831 35.9186 16.6545V27.3773C35.9186 27.5275 35.861 27.6694 35.7621 27.7626L33.8925 29.5264C33.7139 29.6949 33.4549 29.6588 33.3136 29.446C33.1723 29.2331 33.2025 28.9242 33.381 28.7557L35.0943 27.1394V16.6545C35.0943 16.3831 35.2788 16.1631 35.5064 16.1631Z" fill="#F5C09A"/>
<path fill-rule="evenodd" clip-rule="evenodd" d="M8.54266 16.1631C8.79704 16.1631 9.00327 16.3761 9.00327 16.6388V26.7903L22.1398 37.5296L27.9886 32.7485C28.188 32.5854 28.4777 32.6202 28.6356 32.8262C28.7936 33.0323 28.7597 33.3315 28.5604 33.4945L22.4257 38.5094C22.2581 38.6464 22.0214 38.6464 21.8539 38.5094L8.25678 27.3935C8.14641 27.3033 8.08203 27.1658 8.08203 27.0205V16.6388C8.08203 16.3761 8.28827 16.1631 8.54266 16.1631Z" fill="#F5C09A"/>
<path fill-rule="evenodd" clip-rule="evenodd" d="M11.008 28.7908C11.222 28.9064 11.2953 29.1625 11.1717 29.3627L9.3045 32.3872H15.7162C15.9633 32.3872 16.1636 32.5747 16.1636 32.8058C16.1636 33.0371 15.9633 33.2245 15.7162 33.2245H8.52943C8.36958 33.2245 8.22187 33.1446 8.14195 33.0151C8.06204 32.8855 8.06206 32.726 8.14201 32.5965L10.3968 28.944C10.5204 28.7438 10.794 28.6752 11.008 28.7908Z" fill="#F5C09A"/>
<path fill-rule="evenodd" clip-rule="evenodd" d="M21.9099 8.97949C22.0746 8.97949 22.2268 9.06686 22.3092 9.20869L35.8564 32.5368C35.9387 32.6785 35.9387 32.8533 35.8564 32.9952C35.774 33.1369 35.6218 33.2244 35.4571 33.2244H22.1714C21.9168 33.2244 21.7102 33.0191 21.7102 32.766C21.7102 32.5128 21.9168 32.3076 22.1714 32.3076H34.6585L21.9099 10.3547L15.2275 21.8606C15.1002 22.0797 14.8183 22.1548 14.5978 22.0283C14.3772 21.9017 14.3017 21.6213 14.4291 21.402L21.5106 9.20868C21.5929 9.06685 21.7452 8.97949 21.9099 8.97949Z" fill="#F5C09A"/>
</g>
<defs>
<clipPath id="clip0_901_27">
<rect width="44" height="43" fill="white"/>
</clipPath>
</defs>
</svg>
