<svg width="44" height="43" viewBox="0 0 44 43" fill="none" xmlns="http://www.w3.org/2000/svg">
<g clip-path="url(#clip0_901_13)">
<path d="M44 0H0V44H44V0Z" fill="url(#paint0_linear_901_13)"/>
<path d="M22.8348 8.53198C27.0425 8.53198 30.4536 12 30.4536 16.2779V20.7319C30.4536 25.01 27.0425 28.4779 22.8348 28.4779C22.1738 28.4779 21.5325 28.3923 20.9211 28.2315L20.9212 28.7573C20.9212 31.8868 18.4138 34.4297 15.3015 34.4803L15.207 34.481V17.4399L15.2157 17.4396L15.216 16.2779C15.216 12 18.6271 8.53198 22.8348 8.53198ZM22.8348 14.3415C21.7828 14.3415 20.9301 15.2085 20.9301 16.2779V20.7319C20.9301 21.8014 21.7828 22.6684 22.8348 22.6684C23.8868 22.6684 24.7395 21.8014 24.7395 20.7319V16.2779C24.7395 15.2085 23.8868 14.3415 22.8348 14.3415Z" fill="white"/>
</g>
<defs>
<linearGradient id="paint0_linear_901_13" x1="22" y1="0" x2="22" y2="44" gradientUnits="userSpaceOnUse">
<stop stop-color="#7E46F2"/>
<stop offset="1" stop-color="#46279A"/>
</linearGradient>
<clipPath id="clip0_901_13">
<rect width="44" height="43" fill="white"/>
</clipPath>
</defs>
</svg>
