<svg width="44" height="43" viewBox="0 0 44 43" fill="none" xmlns="http://www.w3.org/2000/svg">
<path d="M22.5 43C34.3741 43 44 33.3741 44 21.5C44 9.62588 34.3741 0 22.5 0C10.6259 0 1 9.62588 1 21.5C1 33.3741 10.6259 43 22.5 43Z" fill="black"/>
<path fill-rule="evenodd" clip-rule="evenodd" d="M31.1441 16.2893L34.6435 12.6234L31.5186 9.64062L28.1233 13.1978C27.5753 12.8349 26.9926 12.5247 26.3826 12.272C25.1364 11.7558 23.8008 11.4901 22.452 11.4901C21.1031 11.4901 19.7675 11.7558 18.5214 12.272C17.9637 12.503 17.4288 12.7821 16.9226 13.1055L13.3308 9.67703L10.348 12.8019L13.8515 16.1461C13.5045 16.6777 13.2066 17.2415 12.9626 17.8307C12.4464 19.0769 12.1807 20.4126 12.1807 21.7613C12.1807 23.1102 12.4464 24.4459 12.9626 25.6921C13.1839 26.2265 13.4495 26.7401 13.756 27.2276L10.0625 31.0969L13.1873 34.0796L16.7749 30.3212C17.3245 30.6857 17.9091 30.9972 18.5214 31.2508C19.7675 31.767 21.1031 32.0327 22.452 32.0327C23.8008 32.0327 25.1364 31.767 26.3826 31.2508C26.9456 31.0176 27.4854 30.7353 27.9959 30.408L31.8042 34.0432L34.787 30.9184L31.0616 27.3623C31.4047 26.8351 31.6995 26.2761 31.9414 25.6921C32.4575 24.4459 32.7232 23.1102 32.7232 21.7613C32.7232 20.4126 32.4575 19.0769 31.9414 17.8307C31.7191 17.2942 31.4523 16.7786 31.1441 16.2893ZM22.452 15.5214C21.6325 15.5214 20.821 15.6827 20.064 15.9964C19.3069 16.31 18.619 16.7696 18.0396 17.349C17.4602 17.9284 17.0005 18.6164 16.687 19.3735C16.3734 20.1306 16.212 20.9419 16.212 21.7613C16.212 22.5809 16.3734 23.3922 16.687 24.1493C17.0005 24.9064 17.4602 25.5942 18.0396 26.1738C18.619 26.7532 19.3069 27.2128 20.064 27.5264C20.821 27.8401 21.6325 28.0014 22.452 28.0014C23.2714 28.0014 24.0829 27.8401 24.8399 27.5264C25.597 27.2128 26.2849 26.7532 26.8643 26.1738C27.4437 25.5942 27.9034 24.9064 28.2169 24.1493C28.5305 23.3922 28.6919 22.5809 28.6919 21.7613C28.6919 20.9419 28.5305 20.1306 28.2169 19.3735C27.9034 18.6164 27.4437 17.9284 26.8643 17.349C26.2849 16.7696 25.597 16.31 24.8399 15.9964C24.0829 15.6827 23.2714 15.5214 22.452 15.5214Z" fill="white"/>
</svg>
