<svg width="211" height="30" viewBox="0 0 211 30" fill="none" xmlns="http://www.w3.org/2000/svg">
<path d="M8 14C7.44772 14 7 14.4477 7 15C7 15.5523 7.44771 16 8 16L8 14ZM211 15.0001L201 9.22655L201 20.7736L211 15.0001ZM10.9279 16C11.4802 16 11.9279 15.5523 11.9279 15C11.9279 14.4477 11.4802 14 10.9279 14L10.9279 16ZM20.6875 14C20.1352 14 19.6875 14.4477 19.6875 15C19.6875 15.5523 20.1352 16 20.6875 16L20.6875 14ZM26.5433 16C27.0956 16 27.5433 15.5523 27.5433 15C27.5433 14.4477 27.0956 14 26.5433 14L26.5433 16ZM36.3029 14C35.7506 14 35.3029 14.4477 35.3029 15C35.3029 15.5523 35.7506 16 36.3029 16L36.3029 14ZM42.1587 16C42.7109 16 43.1587 15.5523 43.1587 15C43.1587 14.4477 42.7109 14 42.1587 14L42.1587 16ZM51.9183 14C51.366 14 50.9183 14.4477 50.9183 15C50.9183 15.5523 51.366 16 51.9183 16L51.9183 14ZM57.774 16C58.3263 16 58.774 15.5523 58.774 15C58.774 14.4477 58.3263 14 57.774 14L57.774 16ZM67.5337 14C66.9814 14 66.5337 14.4477 66.5337 15C66.5337 15.5523 66.9814 16 67.5337 16L67.5337 14ZM73.3894 16C73.9417 16 74.3894 15.5523 74.3894 15C74.3894 14.4477 73.9417 14 73.3894 14L73.3894 16ZM83.149 14C82.5968 14 82.149 14.4477 82.149 15C82.149 15.5523 82.5968 16 83.149 16L83.149 14ZM89.0048 16C89.5571 16 90.0048 15.5523 90.0048 15C90.0048 14.4477 89.5571 14 89.0048 14L89.0048 16ZM98.7644 14C98.2121 14 97.7644 14.4477 97.7644 15C97.7644 15.5523 98.2121 16 98.7644 16L98.7644 14ZM104.62 16C105.172 16 105.62 15.5523 105.62 15C105.62 14.4477 105.172 14 104.62 14L104.62 16ZM114.38 14C113.828 14 113.38 14.4477 113.38 15C113.38 15.5523 113.828 16 114.38 16L114.38 14ZM120.236 16C120.788 16 121.236 15.5523 121.236 15C121.236 14.4477 120.788 14 120.236 14L120.236 16ZM129.995 14C129.443 14 128.995 14.4477 128.995 15C128.995 15.5523 129.443 16 129.995 16L129.995 14ZM135.851 16C136.403 16 136.851 15.5523 136.851 15C136.851 14.4477 136.403 14 135.851 14L135.851 16ZM145.611 14C145.058 14 144.611 14.4477 144.611 15C144.611 15.5523 145.058 16 145.611 16L145.611 14ZM151.466 16C152.019 16 152.466 15.5523 152.466 15C152.466 14.4478 152.019 14 151.466 14L151.466 16ZM161.226 14C160.674 14 160.226 14.4478 160.226 15C160.226 15.5523 160.674 16 161.226 16L161.226 14ZM167.082 16C167.634 16 168.082 15.5523 168.082 15C168.082 14.4478 167.634 14 167.082 14L167.082 16ZM176.841 14C176.289 14 175.841 14.4478 175.841 15C175.841 15.5523 176.289 16 176.841 16L176.841 14ZM182.697 16C183.249 16 183.697 15.5523 183.697 15C183.697 14.4478 183.249 14 182.697 14L182.697 16ZM192.457 14C191.904 14 191.457 14.4478 191.457 15C191.457 15.5523 191.904 16 192.457 16L192.457 14ZM198.312 16C198.865 16 199.312 15.5523 199.312 15C199.312 14.4478 198.865 14 198.312 14L198.312 16ZM208.072 14.0001C207.52 14.0001 207.072 14.4478 207.072 15.0001C207.072 15.5523 207.52 16.0001 208.072 16.0001L208.072 14.0001ZM8 16L10.9279 16L10.9279 14L8 14L8 16ZM20.6875 16L26.5433 16L26.5433 14L20.6875 14L20.6875 16ZM36.3029 16L42.1587 16L42.1587 14L36.3029 14L36.3029 16ZM51.9183 16L57.774 16L57.774 14L51.9183 14L51.9183 16ZM67.5337 16L73.3894 16L73.3894 14L67.5337 14L67.5337 16ZM83.149 16L89.0048 16L89.0048 14L83.149 14L83.149 16ZM98.7644 16L104.62 16L104.62 14L98.7644 14L98.7644 16ZM114.38 16L120.236 16L120.236 14L114.38 14L114.38 16ZM129.995 16L135.851 16L135.851 14L129.995 14L129.995 16ZM145.611 16L151.466 16L151.466 14L145.611 14L145.611 16ZM161.226 16L167.082 16L167.082 14L161.226 14L161.226 16ZM176.841 16L182.697 16L182.697 14L176.841 14L176.841 16ZM192.457 16L198.312 16L198.312 14L192.457 14L192.457 16Z" fill="url(#paint0_linear_902_82)"/>
<circle cx="15" cy="15" r="14" fill="#1B232F" stroke="#EFE9E0" stroke-width="2"/>
<circle cx="15" cy="15" r="7" fill="#EFE9E0"/>
<defs>
<linearGradient id="paint0_linear_902_82" x1="78.8543" y1="16.9989" x2="200.703" y2="16.9989" gradientUnits="userSpaceOnUse">
<stop stop-color="#EFE9E0"/>
<stop offset="1" stop-color="#1B232F"/>
</linearGradient>
</defs>
</svg>
