<svg width="44" height="43" viewBox="0 0 44 43" fill="none" xmlns="http://www.w3.org/2000/svg">
<path d="M42.4261 4.01144V14.1858C42.4292 16.5213 42.4215 18.7075 42.3408 21.0395C42.1201 27.5379 39.0293 32.0862 33.021 35.2644C30.1818 36.7662 26.7549 37.0394 23.7792 36.9959V7.67156C23.0143 7.78231 22.5998 7.8722 21.9759 8.07978C15.1822 10.3378 12.5653 15.8596 12.5996 20.6784C12.6168 23.0178 12.5867 26.5316 12.5653 29.2701L12.5996 33.4371H16.3606L16.3778 25.9131C16.3778 25.9131 16.3747 21.8324 16.3778 20.2663C16.384 18.3757 17.5866 14.7101 19.9828 13.3211L19.9653 36.9772L9.01758 36.9942V25.9146H9.02069C9.02069 24.4164 9.05072 22.9182 9.04253 21.4196C9.01758 17.0596 9.70544 14.1171 12.0798 10.9906C14.8527 7.33781 18.3299 4.89155 22.9769 4.2252C25.0692 3.9254 26.1354 4.01144 27.6371 4.01144L27.614 33.3696C28.7709 33.0926 28.9605 33.0466 29.8788 32.7294C35.3724 30.8315 38.7984 25.7419 38.7984 19.8218C38.8015 17.7328 38.8215 16.2489 38.8215 14.163L38.7868 7.5207L34.9856 7.53228L34.9568 14.2317C34.9568 16.2501 34.9736 18.3672 34.9829 20.3824C34.9953 22.6227 34.1882 25.5381 31.404 27.7104V4.01144H42.4261Z" fill="#1454C4"/>
<path d="M5.39094 4V37H1.76367V18.583C1.76367 16.1726 1.77637 13.521 1.77137 11.6511C1.76367 9.04385 2.72178 6.31579 5.39094 4Z" fill="#1454C4"/>
</svg>
