<svg width="343" height="54" viewBox="0 0 343 54" fill="none" xmlns="http://www.w3.org/2000/svg">
<line x1="1" y1="30" x2="342" y2="30" stroke="#EFE9E0" stroke-width="2" stroke-linecap="round" stroke-dasharray="6 10"/>
<circle cx="172.5" cy="27.5002" r="26.2209" fill="#141722"/>
<path fill-rule="evenodd" clip-rule="evenodd" d="M178.5 51.0232C178.5 51.0232 178.5 51.0232 178.5 51.0232V53.7209H200V46.1512H189.383C195.771 41.4239 199.875 34.0754 199.875 25.8226C199.875 11.5612 187.619 0 172.5 0C157.381 0 145.125 11.5612 145.125 25.8226C145.125 34.0754 149.229 41.4239 155.617 46.1512H145V53.7209H166.5V53.5988H166.5V43.5468C158.666 41.1383 153 34.1408 153 25.8837C153 15.6344 161.73 7.3256 172.5 7.3256C183.269 7.3256 192 15.6344 192 25.8837C192 34.1408 186.334 41.1383 178.5 43.5468V51.0232Z" fill="#EFE9E0"/>
</svg>
