<svg width="552" height="535" viewBox="0 0 552 535" fill="none" xmlns="http://www.w3.org/2000/svg">
<line x1="277" y1="1" x2="277" y2="534" stroke="#EFE9E0" stroke-width="2" stroke-linecap="round" stroke-dasharray="6 10"/>
<path d="M1 157C118 157 208 268.5 277 268.5C337 268.5 443 386 551 386" stroke="#EFE9E0" stroke-linecap="round"/>
<path opacity="0.2" d="M551 378C443.384 330.649 346.46 358.955 262.484 322.005C178.854 285.208 108.172 183.156 1.00001 136" stroke="#EFE9E0" stroke-linecap="round"/>
<path opacity="0.2" d="M551 152C430.5 152 342 224.5 284.5 262.5C203.5 312 186.5 384.5 2 384.5" stroke="#EFE9E0" stroke-linecap="round"/>
<circle cx="276.5" cy="268.5" r="26.2209" fill="#141722"/>
<path fill-rule="evenodd" clip-rule="evenodd" d="M282.5 292.023C282.5 292.023 282.5 292.023 282.5 292.023V294.721H304V287.151H293.383C299.771 282.424 303.875 275.075 303.875 266.823C303.875 252.561 291.619 241 276.5 241C261.381 241 249.125 252.561 249.125 266.823C249.125 275.075 253.229 282.424 259.617 287.151H249V294.721H270.5V294.599H270.5V284.547C262.666 282.138 257 275.141 257 266.884C257 256.634 265.73 248.326 276.5 248.326C287.269 248.326 296 256.634 296 266.884C296 275.141 290.334 282.138 282.5 284.547V292.023Z" fill="#EFE9E0"/>
</svg>
