<svg width="40" height="40" viewBox="0 0 40 40" fill="none" xmlns="http://www.w3.org/2000/svg">
<circle cx="19.5918" cy="19.5918" r="19.5918" fill="#EFE9E0"/>
<path d="M19.5001 12.5332C21.7692 12.5332 22.0393 12.5408 22.9351 12.5827C25.2385 12.6873 26.315 13.7809 26.4196 16.0671C26.4614 16.9629 26.469 17.233 26.469 19.5021C26.469 21.7731 26.4614 22.0413 26.4196 22.9371C26.315 25.2214 25.2404 26.3169 22.9351 26.4216C22.0393 26.4634 21.7711 26.471 19.5001 26.471C17.2311 26.471 16.961 26.4634 16.0651 26.4216C13.7561 26.315 12.6853 25.2157 12.5807 22.9352C12.5389 22.0394 12.5312 21.7712 12.5312 19.5002C12.5312 17.2311 12.5408 16.9629 12.5807 16.0652C12.6853 13.779 13.7599 12.6854 16.0651 12.5808C16.9629 12.5408 17.2311 12.5332 19.5001 12.5332Z" fill="#243146"/>
<path d="M19.5 11C17.191 11 16.9019 11.0095 15.9965 11.0514C12.9096 11.1921 11.194 12.9058 11.0514 15.9946C11.0095 16.9019 11 17.191 11 19.5C11 21.809 11.0095 22.0981 11.0514 23.0054C11.1921 26.0923 12.9058 27.8079 15.9946 27.9486C16.9019 27.9905 17.191 28 19.5 28C21.809 28 22.0981 27.9905 23.0054 27.9486C26.0885 27.8079 27.8098 26.0942 27.9486 23.0054C27.9905 22.0981 28 21.809 28 19.5C28 17.191 27.9905 16.9019 27.9486 15.9965C27.8098 12.9115 26.0942 11.194 23.0054 11.0514C22.0981 11.0095 21.809 11 19.5 11Z" fill="#141722"/>
<path d="M19.4998 15.1348C17.09 15.1348 15.1348 17.0881 15.1348 19.4998C15.1348 21.9116 17.0881 23.8649 19.4998 23.8649C21.9116 23.8649 23.8649 21.9116 23.8649 19.4998C23.8649 17.09 21.9097 15.1348 19.4998 15.1348Z" fill="#EFE9E0"/>
<path d="M19.5 22.334C21.0651 22.334 22.334 21.0651 22.334 19.5C22.334 17.9348 21.0651 16.666 19.5 16.666C17.9348 16.666 16.666 17.9348 16.666 19.5C16.666 21.0651 17.9348 22.334 19.5 22.334Z" fill="#141722"/>
<path d="M24.038 13.9424C23.475 13.9424 23.0166 14.3989 23.0166 14.9619C23.0166 15.5248 23.4731 15.9813 24.038 15.9813C24.601 15.9813 25.0574 15.5248 25.0574 14.9619C25.0574 14.3989 24.601 13.9424 24.038 13.9424Z" fill="#EFE9E0"/>
</svg>
