<svg width="19" height="19" viewBox="0 0 19 19" fill="none" xmlns="http://www.w3.org/2000/svg">
<path d="M18.0497 8.54657H8.37897C8.10863 7.80989 7.54842 7.21706 6.8297 6.90756C6.11152 6.59753 5.2978 6.59753 4.57907 6.90756C3.86089 7.2176 3.30068 7.81043 3.03035 8.54657H0.950177C0.610901 8.54657 0.297138 8.72856 0.127229 9.02334C-0.0426809 9.31812 -0.042138 9.6821 0.127229 9.97688C0.296595 10.2717 0.610358 10.4536 0.950177 10.4536H3.02112C3.29145 11.1903 3.85167 11.7826 4.56985 12.0926C5.28803 12.4027 6.10175 12.4027 6.82047 12.0926C7.53865 11.7826 8.09886 11.1898 8.36919 10.4536H18.0491C18.3884 10.4536 18.7022 10.2717 18.8721 9.97688C19.042 9.6821 19.0415 9.31812 18.8721 9.02334C18.7027 8.72856 18.389 8.54657 18.0497 8.54657ZM5.70004 10.4536C5.44816 10.4536 5.2066 10.3534 5.028 10.1747C4.84941 9.99595 4.75007 9.75348 4.75007 9.50011C4.75007 9.24674 4.84995 9.00481 5.028 8.82554C5.20606 8.64628 5.44762 8.54657 5.70004 8.54657C5.95246 8.54657 6.19349 8.64682 6.37208 8.82554C6.55067 9.00426 6.65001 9.24674 6.65001 9.50011C6.65001 9.75348 6.55013 9.9954 6.37208 10.1747C6.19403 10.3539 5.95192 10.4536 5.70004 10.4536ZM18.0497 15.2214H14.0788C13.8085 14.4847 13.2483 13.8924 12.5295 13.5824C11.8114 13.2723 10.9976 13.2723 10.2789 13.5824C9.56073 13.8924 9.00052 14.4852 8.73018 15.2214H0.95072C0.611443 15.2214 0.297681 15.4033 0.127771 15.6981C-0.042138 15.9929 -0.0415952 16.3569 0.127771 16.6517C0.297138 16.9464 0.610901 17.1284 0.95072 17.1284H8.7215C8.99183 17.8651 9.55205 18.4574 10.2708 18.7674C10.9889 19.0775 11.8027 19.0775 12.5214 18.7674C13.2396 18.4574 13.7998 17.8646 14.0701 17.1284H18.0502C18.3895 17.1284 18.7033 16.9464 18.8732 16.6517C19.0431 16.3569 19.0425 15.9929 18.8732 15.6981C18.7038 15.4033 18.3895 15.2214 18.0497 15.2214ZM11.3999 17.1284C11.148 17.1284 10.9064 17.0282 10.7278 16.8495C10.5492 16.6707 10.4499 16.4283 10.4499 16.1749C10.4499 15.9215 10.5498 15.6796 10.7278 15.5003C10.9059 15.3211 11.1475 15.2214 11.3999 15.2214C11.6523 15.2214 11.8933 15.3216 12.0719 15.5003C12.2505 15.6791 12.3499 15.9215 12.3499 16.1749C12.3499 16.4283 12.25 16.6702 12.0719 16.8495C11.8939 17.0287 11.6518 17.1284 11.3999 17.1284ZM0.950177 3.77886H11.5709C11.8412 4.51554 12.4014 5.10837 13.1201 5.41786C13.8383 5.7279 14.652 5.7279 15.3708 5.41786C16.0889 5.10782 16.6492 4.51499 16.9195 3.77886H18.0497C18.389 3.77886 18.7027 3.59687 18.8726 3.30209C19.0425 3.00731 19.042 2.64333 18.8726 2.34854C18.7033 2.05376 18.3895 1.87177 18.0497 1.87177H16.9287C16.6584 1.13509 16.0982 0.542264 15.3795 0.232772C14.6613 -0.0772652 13.8476 -0.0772652 13.1288 0.232772C12.4107 0.542809 11.8504 1.13564 11.5801 1.87177H0.95072C0.611443 1.87177 0.297681 2.05376 0.127771 2.34854C-0.042138 2.64333 -0.0415952 3.00731 0.127771 3.30209C0.297138 3.59687 0.610901 3.77886 0.950177 3.77886ZM14.2498 1.87177C14.5017 1.87177 14.7432 1.97203 14.9218 2.15075C15.1004 2.32947 15.1998 2.57249 15.1998 2.82532C15.1998 3.07814 15.0999 3.32061 14.9218 3.49988C14.7438 3.67914 14.5022 3.77886 14.2498 3.77886C13.9974 3.77886 13.7564 3.6786 13.5778 3.49988C13.3992 3.32116 13.2998 3.07814 13.2998 2.82532C13.2998 2.57249 13.3997 2.33002 13.5778 2.15075C13.7558 1.97149 13.9979 1.87177 14.2498 1.87177Z" fill="#141722"/>
</svg>
