<?xml version="1.0" encoding="UTF-8" standalone="no"?>
<svg
   xmlns="http://www.w3.org/2000/svg"
   width="32"
   height="32"
   version="1.1"
   id="svg32">
  <defs
     id="defs36" />
  <path
     d="m 30.02116,18.922315 c 0,0.62061 -0.11361,1.21425 -0.32158,1.76153 -0.71154,1.86934 -2.51936,3.19719 -4.63796,3.19719 -2.16824,0 -4.01067,-1.39101 -4.6852,-3.32943 -4.00549,0.28792 -6.29586,-1.50222 -7.24821,-4.9142 -2.40569,-0.6542 -4.17398,-2.85357 -4.17398,-5.46653 0,-1.68991 0.74009,-3.20736 1.91385,-4.24465 0.99877,-0.88414 2.31235,-1.4205 3.75136,-1.4205 1.64861,0 3.13315,0.70384 4.16716,1.82892 0.6955,-0.45477 1.5266,-0.71837 2.41927,-0.71837 0.623,0 1.21677,0.12889 1.75483,0.3613 1.55692,0.67195 2.65161,2.21111 2.67599,4.00896 8.2e-4,0.021 8.2e-4,0.0412 8.2e-4,0.0623 l -8.2e-4,0.075 v 8.2e-4 c 0.22641,-0.0497 0.46134,-0.0758 0.70309,-0.0758 1.07947,0 2.03858,0.51703 2.64308,1.31693 h 9.5e-4 c 0.41927,0.55493 0.66772,1.2462 0.66772,1.99564 a 3.2883828,3.2883828 0 0 1 -0.773,2.12441 2.8039984,2.8039984 0 0 1 -0.11715,0.13388 c 0.78405,0.87657 1.25972,2.03435 1.25972,3.30259"
     id="path4"
     style="fill:#ff5caa;stroke-width:0.06315312" />
  <g
     className="B C"
     id="g12"
     style="fill:none;stroke:#103849;stroke-linejoin:round;stroke-miterlimit:10"
     transform="matrix(0.06315312,0,0,0.06315312,0,2.526885)">
    <path
       d="m 334.918,114.706 c -14.208,15.441 -22.885,36.052 -22.885,58.691 0,47.88 38.816,86.696 86.697,86.696 a 87.1,87.1 0 0 0 18.377,-1.952 M 227.705,86.721 c 2.169,31.312 28.257,56.04 60.12,56.04 m 95.841,-11.628 a 51.89,51.89 0 0 1 22.28,-10.825 M 297.478,60.294 c -10.092,6.572 -18.387,15.68 -23.972,26.427"
       className="D E"
       id="path6"
       style="stroke-width:10.66699982;stroke-linecap:round" />
    <path
       d="m 475.371,259.614 c 0,43.372 -35.16,78.52 -78.532,78.52 -34.333,0 -63.507,-22.026 -74.188,-52.72 -63.425,4.559 -99.692,-23.787 -114.772,-77.814 -38.093,-10.359 -66.093,-45.185 -66.093,-86.56 0,-49.545 40.159,-89.705 89.706,-89.705 26.105,0 49.612,11.145 65.985,28.96 11.013,-7.201 24.173,-11.375 38.308,-11.375 38.759,0 70.173,31.428 70.173,70.188 l -0.013,1.187 v 0.013 c 3.585,-0.787 7.305,-1.2 11.133,-1.2 28.959,0 52.44,23.479 52.44,52.453 0,13.827 -5.347,26.387 -14.095,35.759 12.415,13.88 19.947,32.213 19.947,52.295 z"
       className="F"
       id="path8"
       style="stroke-width:9.33300018" />
    <path
       d="m 455.424,207.319 c 0,0 -6.088,-6.317 -14.415,-12.892 M 221.251,349.72 a 70.67,70.67 0 0 1 -6.505,-22.802"
       className="D E"
       id="path10"
       style="stroke-width:10.66699982;stroke-linecap:round" />
  </g>
  <path
     d="m 23.69751,21.163815 a 4.4617677,4.4617677 0 0 1 0.2643,1.51656 c 0,2.65918 -2.33408,4.81391 -5.21392,4.81391 -2.13534,0 -3.97025,-1.18482 -4.7752,-2.88143 -0.66342,0.45047 -1.45928,0.71319 -2.31393,0.71319 -1.91638,0 -3.53316,-1.31864 -4.04003,-3.12229 a 4.5647073,4.5647073 0 0 1 -1.10644,0.13559 c -2.50339,0 -4.53358,-2.02943 -4.53358,-4.53364 0,-1.9232 1.19821,-3.56682 2.88901,-4.2245 -0.0665,-0.27528 -0.10187,-0.56073 -0.10187,-0.85376 0,-2.27099 2.1102,-4.11171 4.71375,-4.11171 1.49464,0 2.82831,0.60784 3.69142,1.55432 0.69223,-0.37134 1.49048,-0.58429 2.34096,-0.58429 2.6381,0 4.77678,2.04534 4.77678,4.56805 a 3.1336577,3.1336577 0 0 1 -0.004,0.17841 c 2.17676,0.39913 3.83131,2.39824 3.83131,4.80475 0,0.72329 -0.14898,1.40958 -0.41839,2.02677"
     id="path14"
     style="fill:#ff5caa;stroke-width:0.06315312" />
  <g
     className="B C"
     id="g28"
     style="fill:none;stroke:#103849;stroke-linejoin:round;stroke-miterlimit:10"
     transform="matrix(0.06315312,0,0,0.06315312,0,2.526885)">
    <path
       d="m 348.452,259.614 c 12.305,9.092 21.72,21.387 26.787,35.493 m -254.6,16.466 c -1.707,-6.053 -2.614,-12.44 -2.614,-19.053 0,-26.988 15.187,-50.333 37.241,-61.493 M 95.773,170.533 c -6.533,0.667 -12.8,2.201 -18.694,4.507 m 131.494,-54.001 -0.015,-0.013 m 0,0 c -9.372,5.067 -17.505,11.975 -23.865,20.215"
       className="D E"
       id="path16"
       style="stroke-width:10.66699982;stroke-linecap:round" />
    <path
       d="m 375.239,295.107 a 70.65,70.65 0 0 1 4.185,24.014 c 0,42.107 -36.959,76.226 -82.56,76.226 -33.812,0 -62.867,-18.761 -75.613,-45.626 -10.505,7.133 -23.107,11.293 -36.64,11.293 -30.345,0 -55.946,-20.88 -63.972,-49.44 a 72.28,72.28 0 0 1 -17.52,2.147 c -39.64,0 -71.787,-32.135 -71.787,-71.788 0,-30.453 18.973,-56.479 45.746,-66.893 -1.053,-4.359 -1.613,-8.879 -1.613,-13.519 0,-35.96 33.414,-65.107 74.64,-65.107 23.667,0 44.785,9.625 58.452,24.612 10.961,-5.88 23.601,-9.252 37.068,-9.252 41.773,0 75.638,32.387 75.638,72.333 a 49.62,49.62 0 0 1 -0.067,2.825 c 34.468,6.32 60.667,37.975 60.667,76.081 0,11.453 -2.359,22.32 -6.625,32.093 z"
       className="F"
       id="path18"
       style="stroke-width:9.33300018" />
    <g
       className="D E"
       id="g24"
       style="stroke-width:10.66699982;stroke-linecap:round">
      <path
         d="m 256.679,208.414 c 13.28,-13.973 31.613,-22.627 51.852,-22.627 4.321,0 8.548,0.387 12.667,1.145 m -4.749,90.824 c -10.463,13.083 -26.56,21.464 -44.615,21.464 -31.532,0 -57.093,-25.563 -57.093,-57.093 a 56.86,56.86 0 0 1 12.872,-36.116"
         id="path20" />
      <path
         d="m 297.079,327.479 c 0,-11.213 -2.828,-21.758 -7.815,-30.972 m -111.506,-5.493 c 9.413,-13.947 24.068,-24.041 41.148,-27.467 M 75.973,241.972 a 61.64,61.64 0 0 1 22.72,-4.333 61.32,61.32 0 0 1 34.919,10.855 m 59.741,-59.068 c -3.885,1.144 -7.997,1.757 -12.253,1.757 A 43.21,43.21 0 0 1 150.867,178.9 m 229.865,7.742 a 34.51,34.51 0 0 1 20.692,-6.851 34.83,34.83 0 0 1 6.18,0.549"
         id="path22" />
    </g>
    <path
       d="m 461.575,207.349 c 8.16,-10.125 12.611,-22.68 12.611,-35.788 0,-31.496 -25.619,-57.121 -57.107,-57.121 -2.201,0 -4.397,0.128 -6.575,0.38 -2.228,-39.288 -34.891,-70.566 -74.72,-70.566 -13.28,0 -26.18,3.477 -37.545,10.089 A 94.57,94.57 0 0 0 231.491,26.668 c -41.961,0 -77.597,27.535 -89.83,65.479 -39.773,3.721 -70.862,33.411 -70.862,69.374 0,3.579 0.313,7.164 0.93,10.7 -27.506,12.328 -45.062,39.275 -45.062,69.713 0,42.156 34.297,76.453 76.453,76.453 a 77.21,77.21 0 0 0 14.348,-1.343 c 10.006,28.848 37.02,48.636 67.145,48.636 a 69.54,69.54 0 0 0 34.819,-9.317 c 14.904,26.68 44.717,43.65 77.433,43.65 39.832,0 73.49,-24.899 83.889,-58.788 5.231,1.031 10.611,1.574 16.084,1.574 45.876,0 83.2,-37.319 83.2,-83.186 0,-19.108 -6.528,-37.511 -18.463,-52.265 z"
       id="path26"
       style="stroke-width:18.66699982" />
  </g>
  <path
     d="m 14.61938,2.526945 c -1.55666,0 -3.05402,0.46355 -4.33016,1.34043 -1.10189,0.75714 -1.97536,1.77839 -2.55233,2.97754 -2.80848,0.6806 -4.81644,2.94066 -4.94338,5.61318 C 1.05523,13.665015 0,15.657805 0,17.805775 c 0,3.55318 2.86071,6.45096 6.39975,6.51134 1.11749,1.83611 3.10959,2.98771 5.25914,2.98771 0.54911,0 1.08876,-0.0728 1.61217,-0.217 1.3547,1.50652 3.34503,2.38523 5.47689,2.38523 1.44412,0 2.84296,-0.40948 4.04534,-1.18393 0.97704,-0.62926 1.76424,-1.45985 2.30906,-2.42944 C 28.90967,25.837785 32,22.734115 32,18.922315 c 0,-1.17774 -0.29461,-2.32049 -0.85737,-3.34225 a 5.2814952,5.2814952 0 0 0 0.4878,-2.21863 c 0,-1.38766 -0.53485,-2.69986 -1.50608,-3.69471 -0.76592,-0.78461 -1.73538,-1.30291 -2.79042,-1.50349 -0.35662,-1.15766 -1.0395,-2.20069 -1.97271,-2.99566 a 6.4150936,6.4150936 0 0 0 -4.15529,-1.53014 c -0.70978,0 -1.42214,0.12043 -2.09333,0.35119 -1.30386,-0.94666 -2.8753,-1.46168 -4.49322,-1.46168 z m 0,1.09464 c 1.57832,0 3.12614,0.58612 4.31171,1.62095 a 5.3187555,5.3187555 0 0 1 2.27472,-0.51034 c 2.62016,0 4.82022,1.90545 5.24284,4.43392 2.26335,0.058 4.08702,1.91777 4.08702,4.19538 a 4.2085237,4.2085237 0 0 1 -0.65648,2.25299 c 0.66437,0.96807 1.02605,2.1263 1.02605,3.3079 0,3.22182 -2.62155,5.84292 -5.84375,5.84292 -0.2084,0 -0.41757,-0.0114 -0.62572,-0.0339 -0.8993,2.1707 -3.16548,3.64703 -5.68788,3.64703 -2.0802,0 -3.98648,-0.97565 -5.10492,-2.57961 a 5.0017268,5.0017268 0 0 1 -1.98408,0.41138 c -1.98857,0 -3.78717,-1.19233 -4.61536,-3.0126 -0.17645,0.0172 -0.35397,0.0258 -0.53118,0.0258 -2.98727,0 -5.41765,-2.43032 -5.41765,-5.41771 0,-1.98333 1.08547,-3.8003 2.79964,-4.74388 a 4.4996596,4.4996596 0 0 1 -0.0125,-0.33445 c 0,-2.45028 1.96533,-4.50888 4.63077,-4.92115 0.97376,-2.51835 3.38178,-4.18471 6.1069,-4.18471"
     id="path30"
     style="fill:#f0f0f0;stroke-width:0.06315312" />
</svg>
