<?xml version="1.0" encoding="UTF-8" standalone="no"?>
<svg
   xmlns="http://www.w3.org/2000/svg"
   viewBox="0 0 32 32"
   version="1.1"
   id="svg8"
   width="32"
   height="32">
  <g
     id="g6"
     transform="matrix(0.0969697,0,0,0.0969697,-0.0969697,-0.0969707)">
    <rect
       x="1"
       y="1"
       width="330"
       height="330"
       rx="165"
       id="rect2" />
    <path
       d="m 85.51,112.31 c 0,-6.49 -0.4,-12.77 -1,-19.26 h 29 l 1,13.18 c 3.25,-4.46 11.15,-15.41 31.63,-15.41 23.52,0 30.21,14.39 32.23,19.26 C 186.88,93.66 200.66,91 211.21,91 c 20.67,0 29,12.37 31.21,16.42 5.48,8.92 5.07,21.29 5.07,30.21 v 56.08 h -30.2 v -58.49 c 0,-11 -1.63,-23.11 -17.23,-23.11 -18.05,0 -18.45,16.82 -18.45,32 V 193.7 H 151.4 v -59.09 c 0,-7.91 -0.2,-22.5 -16.83,-22.5 -18.85,0 -18.85,16.21 -18.85,23.11 v 58.51 H 85.51 Z M 84.5,216.24 h 163 v 24.94 h -163 z"
       id="path4"
       style="fill:#f4f4f4" />
  </g>
</svg>
