<?xml version="1.0" encoding="UTF-8" standalone="no"?>
<svg
   xmlns="http://www.w3.org/2000/svg"
   id="Layer_1"
   viewBox="0 0 32 32"
   version="1.1"
   width="32"
   height="32">
  <defs
     id="defs4">
    <style
       id="style2">.cls-1{fill:#231f20;stroke:#fff;stroke-miterlimit:10;stroke-width:2.21px;}.cls-2{fill:#fff;}.cls-3{fill:#ed1c24;}</style>
  </defs>
  <circle
     className="cls-1"
     cx="16"
     cy="16"
     r="15.420043"
     id="circle6"
     style="fill:#231f20;stroke:#ffffff;stroke-width:1.15991473px;stroke-miterlimit:10" />
  <path
     className="cls-2"
     d="m 10.310644,6.8886329 h 5.726095 a 16.522224,16.522224 0 0 1 2.535017,0.141709 3.7474169,3.7474169 0 0 1 1.495818,0.593079 3.6739381,3.6739381 0 0 1 1.102181,1.196654 3.2750534,3.2750534 0 0 1 0.41463,1.6742661 3.39052,3.39052 0 0 1 -2.010169,3.107102 3.7736593,3.7736593 0 0 1 2.010169,1.301624 3.4377564,3.4377564 0 0 1 0.703297,2.162375 4.2302773,4.2302773 0 0 1 -0.45137,1.89995 3.847138,3.847138 0 0 1 -1.24389,1.474824 4.0990652,4.0990652 0 0 1 -1.93669,0.677054 c -0.482861,0.05248 -1.648024,0.08922 -3.490242,0.09972 h -4.854846 z m 2.876168,2.3828113 v 3.3170418 h 1.894703 c 1.128424,0 1.826472,0 2.099393,-0.05248 A 1.8999508,1.8999508 0 0 0 18.346071,12.011152 1.5168116,1.5168116 0 0 0 18.771198,10.887977 1.5745449,1.5745449 0 0 0 18.403805,9.8120378 1.6427752,1.6427752 0 0 0 17.317369,9.2871895 C 17.028702,9.2556985 16.20469,9.2347045 14.840085,9.2347045 Z m 0,5.6998528 v 3.831392 h 2.676727 a 12.407414,12.407414 0 0 0 1.983926,-0.08922 1.7792357,1.7792357 0 0 0 1.049697,-0.572084 1.7372479,1.7372479 0 0 0 0.409382,-1.2124 1.8632115,1.8632115 0 0 0 -0.314909,-1.096933 1.7739873,1.7739873 0 0 0 -0.902739,-0.65606 9.8514026,9.8514026 0 0 0 -2.566509,-0.204691 z"
     id="path8"
     style="fill:#ffffff;stroke-width:0.52484828" />
  <rect
     className="cls-3"
     x="10.310644"
     y="22.833525"
     width="12.003281"
     height="2.4143021"
     id="rect10"
     style="fill:#ed1c24;stroke-width:0.52484828" />
</svg>
