<svg width="1294" height="314" viewBox="0 0 1294 314" fill="none" xmlns="http://www.w3.org/2000/svg">
<g clip-path="url(#clip0_403_92041)">
<g filter="url(#filter0_i_403_92041)">
<path d="M1137 0H157C70.2913 0 0 70.2913 0 157C0 243.709 70.2913 314 157 314H1137C1223.71 314 1294 243.709 1294 157C1294 70.2913 1223.71 0 1137 0Z" fill="url(#paint0_radial_403_92041)"/>
<path fill-rule="evenodd" clip-rule="evenodd" d="M157 8C74.7096 8 8 74.7096 8 157C8 239.29 74.7096 306 157 306H1137C1219.29 306 1286 239.29 1286 157C1286 74.7096 1219.29 8 1137 8H157ZM0 157C0 70.2913 70.2913 0 157 0H1137C1223.71 0 1294 70.2913 1294 157C1294 243.709 1223.71 314 1137 314H157C70.2913 314 0 243.709 0 157Z" fill="url(#paint1_linear_403_92041)"/>
</g>
<path d="M102.59 120.57C102.59 115.81 103.687 111.54 105.88 107.76C108.12 103.98 111.13 101.04 114.91 98.9401C118.737 96.7931 122.913 95.7201 127.44 95.7201C132.62 95.7201 137.217 97.0031 141.23 99.5701C145.29 102.09 148.23 105.683 150.05 110.35H140.46C139.2 107.783 137.45 105.87 135.21 104.61C132.97 103.35 130.38 102.72 127.44 102.72C124.22 102.72 121.35 103.443 118.83 104.89C116.31 106.337 114.327 108.413 112.88 111.12C111.48 113.827 110.78 116.977 110.78 120.57C110.78 124.163 111.48 127.313 112.88 130.02C114.327 132.727 116.31 134.827 118.83 136.32C121.35 137.767 124.22 138.49 127.44 138.49C130.38 138.49 132.97 137.86 135.21 136.6C137.45 135.34 139.2 133.427 140.46 130.86H150.05C148.23 135.527 145.29 139.12 141.23 141.64C137.217 144.16 132.62 145.42 127.44 145.42C122.867 145.42 118.69 144.37 114.91 142.27C111.13 140.123 108.12 137.16 105.88 133.38C103.687 129.6 102.59 125.33 102.59 120.57ZM164.571 93.2001V145H156.591V93.2001H164.571ZM176.308 101.32C174.861 101.32 173.648 100.83 172.668 99.8501C171.688 98.8701 171.198 97.6571 171.198 96.2101C171.198 94.7631 171.688 93.5501 172.668 92.5701C173.648 91.5901 174.861 91.1001 176.308 91.1001C177.708 91.1001 178.898 91.5901 179.878 92.5701C180.858 93.5501 181.348 94.7631 181.348 96.2101C181.348 97.6571 180.858 98.8701 179.878 99.8501C178.898 100.83 177.708 101.32 176.308 101.32ZM180.228 106.43V145H172.248V106.43H180.228ZM234.595 105.8C237.628 105.8 240.335 106.43 242.715 107.69C245.141 108.95 247.031 110.817 248.385 113.29C249.785 115.763 250.485 118.75 250.485 122.25V145H242.575V123.44C242.575 119.987 241.711 117.35 239.985 115.53C238.258 113.663 235.901 112.73 232.915 112.73C229.928 112.73 227.548 113.663 225.775 115.53C224.048 117.35 223.185 119.987 223.185 123.44V145H215.275V123.44C215.275 119.987 214.411 117.35 212.685 115.53C210.958 113.663 208.601 112.73 205.615 112.73C202.628 112.73 200.248 113.663 198.475 115.53C196.748 117.35 195.885 119.987 195.885 123.44V145H187.905V106.43H195.885V110.84C197.191 109.253 198.848 108.017 200.855 107.13C202.861 106.243 205.008 105.8 207.295 105.8C210.375 105.8 213.128 106.453 215.555 107.76C217.981 109.067 219.848 110.957 221.155 113.43C222.321 111.097 224.141 109.253 226.615 107.9C229.088 106.5 231.748 105.8 234.595 105.8ZM255.179 125.54C255.179 121.667 255.972 118.237 257.559 115.25C259.192 112.263 261.386 109.953 264.139 108.32C266.939 106.64 270.019 105.8 273.379 105.8C276.412 105.8 279.049 106.407 281.289 107.62C283.576 108.787 285.396 110.257 286.749 112.03V106.43H294.799V145H286.749V139.26C285.396 141.08 283.552 142.597 281.219 143.81C278.886 145.023 276.226 145.63 273.239 145.63C269.926 145.63 266.892 144.79 264.139 143.11C261.386 141.383 259.192 139.003 257.559 135.97C255.972 132.89 255.179 129.413 255.179 125.54ZM286.749 125.68C286.749 123.02 286.189 120.71 285.069 118.75C283.996 116.79 282.572 115.297 280.799 114.27C279.026 113.243 277.112 112.73 275.059 112.73C273.006 112.73 271.092 113.243 269.319 114.27C267.546 115.25 266.099 116.72 264.979 118.68C263.906 120.593 263.369 122.88 263.369 125.54C263.369 128.2 263.906 130.533 264.979 132.54C266.099 134.547 267.546 136.087 269.319 137.16C271.139 138.187 273.052 138.7 275.059 138.7C277.112 138.7 279.026 138.187 280.799 137.16C282.572 136.133 283.996 134.64 285.069 132.68C286.189 130.673 286.749 128.34 286.749 125.68ZM311.79 112.94V134.29C311.79 135.737 312.117 136.787 312.77 137.44C313.47 138.047 314.637 138.35 316.27 138.35H321.17V145H314.87C311.277 145 308.524 144.16 306.61 142.48C304.697 140.8 303.74 138.07 303.74 134.29V112.94H299.19V106.43H303.74V96.8401H311.79V106.43H321.17V112.94H311.79ZM361.075 124.77C361.075 126.217 360.982 127.523 360.795 128.69H331.325C331.559 131.77 332.702 134.243 334.755 136.11C336.809 137.977 339.329 138.91 342.315 138.91C346.609 138.91 349.642 137.113 351.415 133.52H360.025C358.859 137.067 356.735 139.983 353.655 142.27C350.622 144.51 346.842 145.63 342.315 145.63C338.629 145.63 335.315 144.813 332.375 143.18C329.482 141.5 327.195 139.167 325.515 136.18C323.882 133.147 323.065 129.647 323.065 125.68C323.065 121.713 323.859 118.237 325.445 115.25C327.079 112.217 329.342 109.883 332.235 108.25C335.175 106.617 338.535 105.8 342.315 105.8C345.955 105.8 349.199 106.593 352.045 108.18C354.892 109.767 357.109 112.007 358.695 114.9C360.282 117.747 361.075 121.037 361.075 124.77ZM352.745 122.25C352.699 119.31 351.649 116.953 349.595 115.18C347.542 113.407 344.999 112.52 341.965 112.52C339.212 112.52 336.855 113.407 334.895 115.18C332.935 116.907 331.769 119.263 331.395 122.25H352.745ZM415.532 110.84C415.532 113.313 414.949 115.647 413.782 117.84C412.615 120.033 410.749 121.83 408.182 123.23C405.615 124.583 402.325 125.26 398.312 125.26H389.492V145H381.512V96.3501H398.312C402.045 96.3501 405.195 97.0031 407.762 98.3101C410.375 99.5701 412.312 101.297 413.572 103.49C414.879 105.683 415.532 108.133 415.532 110.84ZM398.312 118.75C401.345 118.75 403.609 118.073 405.102 116.72C406.595 115.32 407.342 113.36 407.342 110.84C407.342 105.52 404.332 102.86 398.312 102.86H389.492V118.75H398.312ZM437.073 145.63C433.433 145.63 430.143 144.813 427.203 143.18C424.263 141.5 421.953 139.167 420.273 136.18C418.593 133.147 417.753 129.647 417.753 125.68C417.753 121.76 418.616 118.283 420.343 115.25C422.07 112.217 424.426 109.883 427.413 108.25C430.4 106.617 433.736 105.8 437.423 105.8C441.11 105.8 444.446 106.617 447.433 108.25C450.42 109.883 452.776 112.217 454.503 115.25C456.23 118.283 457.093 121.76 457.093 125.68C457.093 129.6 456.206 133.077 454.433 136.11C452.66 139.143 450.233 141.5 447.153 143.18C444.12 144.813 440.76 145.63 437.073 145.63ZM437.073 138.7C439.126 138.7 441.04 138.21 442.813 137.23C444.633 136.25 446.103 134.78 447.223 132.82C448.343 130.86 448.903 128.48 448.903 125.68C448.903 122.88 448.366 120.523 447.293 118.61C446.22 116.65 444.796 115.18 443.023 114.2C441.25 113.22 439.336 112.73 437.283 112.73C435.23 112.73 433.316 113.22 431.543 114.2C429.816 115.18 428.44 116.65 427.413 118.61C426.386 120.523 425.873 122.88 425.873 125.68C425.873 129.833 426.923 133.053 429.023 135.34C431.17 137.58 433.853 138.7 437.073 138.7ZM476.182 145.63C473.148 145.63 470.418 145.093 467.992 144.02C465.612 142.9 463.722 141.407 462.322 139.54C460.922 137.627 460.175 135.503 460.082 133.17H468.342C468.482 134.803 469.252 136.18 470.652 137.3C472.098 138.373 473.895 138.91 476.042 138.91C478.282 138.91 480.008 138.49 481.222 137.65C482.482 136.763 483.112 135.643 483.112 134.29C483.112 132.843 482.412 131.77 481.012 131.07C479.658 130.37 477.488 129.6 474.502 128.76C471.608 127.967 469.252 127.197 467.432 126.45C465.612 125.703 464.025 124.56 462.672 123.02C461.365 121.48 460.712 119.45 460.712 116.93C460.712 114.877 461.318 113.01 462.532 111.33C463.745 109.603 465.472 108.25 467.712 107.27C469.998 106.29 472.612 105.8 475.552 105.8C479.938 105.8 483.462 106.92 486.122 109.16C488.828 111.353 490.275 114.363 490.462 118.19H482.482C482.342 116.463 481.642 115.087 480.382 114.06C479.122 113.033 477.418 112.52 475.272 112.52C473.172 112.52 471.562 112.917 470.442 113.71C469.322 114.503 468.762 115.553 468.762 116.86C468.762 117.887 469.135 118.75 469.882 119.45C470.628 120.15 471.538 120.71 472.612 121.13C473.685 121.503 475.272 121.993 477.372 122.6C480.172 123.347 482.458 124.117 484.232 124.91C486.052 125.657 487.615 126.777 488.922 128.27C490.228 129.763 490.905 131.747 490.952 134.22C490.952 136.413 490.345 138.373 489.132 140.1C487.918 141.827 486.192 143.18 483.952 144.16C481.758 145.14 479.168 145.63 476.182 145.63ZM500.834 101.32C499.388 101.32 498.174 100.83 497.194 99.8501C496.214 98.8701 495.724 97.6571 495.724 96.2101C495.724 94.7631 496.214 93.5501 497.194 92.5701C498.174 91.5901 499.388 91.1001 500.834 91.1001C502.234 91.1001 503.424 91.5901 504.404 92.5701C505.384 93.5501 505.874 94.7631 505.874 96.2101C505.874 97.6571 505.384 98.8701 504.404 99.8501C503.424 100.83 502.234 101.32 500.834 101.32ZM504.754 106.43V145H496.774V106.43H504.754ZM521.741 112.94V134.29C521.741 135.737 522.068 136.787 522.721 137.44C523.421 138.047 524.588 138.35 526.221 138.35H531.121V145H524.821C521.228 145 518.475 144.16 516.561 142.48C514.648 140.8 513.691 138.07 513.691 134.29V112.94H509.141V106.43H513.691V96.8401H521.741V106.43H531.121V112.94H521.741ZM539.736 101.32C538.29 101.32 537.076 100.83 536.096 99.8501C535.116 98.8701 534.626 97.6571 534.626 96.2101C534.626 94.7631 535.116 93.5501 536.096 92.5701C537.076 91.5901 538.29 91.1001 539.736 91.1001C541.136 91.1001 542.326 91.5901 543.306 92.5701C544.286 93.5501 544.776 94.7631 544.776 96.2101C544.776 97.6571 544.286 98.8701 543.306 99.8501C542.326 100.83 541.136 101.32 539.736 101.32ZM543.656 106.43V145H535.676V106.43H543.656ZM566.243 137.86L577.163 106.43H585.633L570.933 145H561.413L546.783 106.43H555.323L566.243 137.86ZM624.215 124.77C624.215 126.217 624.122 127.523 623.935 128.69H594.465C594.699 131.77 595.842 134.243 597.895 136.11C599.949 137.977 602.469 138.91 605.455 138.91C609.749 138.91 612.782 137.113 614.555 133.52H623.165C621.999 137.067 619.875 139.983 616.795 142.27C613.762 144.51 609.982 145.63 605.455 145.63C601.769 145.63 598.455 144.813 595.515 143.18C592.622 141.5 590.335 139.167 588.655 136.18C587.022 133.147 586.205 129.647 586.205 125.68C586.205 121.713 586.999 118.237 588.585 115.25C590.219 112.217 592.482 109.883 595.375 108.25C598.315 106.617 601.675 105.8 605.455 105.8C609.095 105.8 612.339 106.593 615.185 108.18C618.032 109.767 620.249 112.007 621.835 114.9C623.422 117.747 624.215 121.037 624.215 124.77ZM615.885 122.25C615.839 119.31 614.789 116.953 612.735 115.18C610.682 113.407 608.139 112.52 605.105 112.52C602.352 112.52 599.995 113.407 598.035 115.18C596.075 116.907 594.909 119.263 594.535 122.25H615.885ZM678.672 110.84C678.672 113.313 678.089 115.647 676.922 117.84C675.755 120.033 673.889 121.83 671.322 123.23C668.755 124.583 665.465 125.26 661.452 125.26H652.632V145H644.652V96.3501H661.452C665.185 96.3501 668.335 97.0031 670.902 98.3101C673.515 99.5701 675.452 101.297 676.712 103.49C678.019 105.683 678.672 108.133 678.672 110.84ZM661.452 118.75C664.485 118.75 666.749 118.073 668.242 116.72C669.735 115.32 670.482 113.36 670.482 110.84C670.482 105.52 667.472 102.86 661.452 102.86H652.632V118.75H661.452ZM691.463 112.03C692.629 110.07 694.169 108.553 696.083 107.48C698.043 106.36 700.353 105.8 703.013 105.8V114.06H700.983C697.856 114.06 695.476 114.853 693.843 116.44C692.256 118.027 691.463 120.78 691.463 124.7V145H683.483V106.43H691.463V112.03ZM724.278 145.63C720.638 145.63 717.348 144.813 714.408 143.18C711.468 141.5 709.158 139.167 707.478 136.18C705.798 133.147 704.958 129.647 704.958 125.68C704.958 121.76 705.821 118.283 707.548 115.25C709.275 112.217 711.631 109.883 714.618 108.25C717.605 106.617 720.941 105.8 724.628 105.8C728.315 105.8 731.651 106.617 734.638 108.25C737.625 109.883 739.981 112.217 741.708 115.25C743.435 118.283 744.298 121.76 744.298 125.68C744.298 129.6 743.411 133.077 741.638 136.11C739.865 139.143 737.438 141.5 734.358 143.18C731.325 144.813 727.965 145.63 724.278 145.63ZM724.278 138.7C726.331 138.7 728.245 138.21 730.018 137.23C731.838 136.25 733.308 134.78 734.428 132.82C735.548 130.86 736.108 128.48 736.108 125.68C736.108 122.88 735.571 120.523 734.498 118.61C733.425 116.65 732.001 115.18 730.228 114.2C728.455 113.22 726.541 112.73 724.488 112.73C722.435 112.73 720.521 113.22 718.748 114.2C717.021 115.18 715.645 116.65 714.618 118.61C713.591 120.523 713.078 122.88 713.078 125.68C713.078 129.833 714.128 133.053 716.228 135.34C718.375 137.58 721.058 138.7 724.278 138.7ZM758.697 112.94V134.29C758.697 135.737 759.023 136.787 759.677 137.44C760.377 138.047 761.543 138.35 763.177 138.35H768.077V145H761.777C758.183 145 755.43 144.16 753.517 142.48C751.603 140.8 750.647 138.07 750.647 134.29V112.94H746.097V106.43H750.647V96.8401H758.697V106.43H768.077V112.94H758.697ZM789.362 145.63C785.722 145.63 782.432 144.813 779.492 143.18C776.552 141.5 774.242 139.167 772.562 136.18C770.882 133.147 770.042 129.647 770.042 125.68C770.042 121.76 770.905 118.283 772.632 115.25C774.358 112.217 776.715 109.883 779.702 108.25C782.688 106.617 786.025 105.8 789.712 105.8C793.398 105.8 796.735 106.617 799.722 108.25C802.708 109.883 805.065 112.217 806.792 115.25C808.518 118.283 809.382 121.76 809.382 125.68C809.382 129.6 808.495 133.077 806.722 136.11C804.948 139.143 802.522 141.5 799.442 143.18C796.408 144.813 793.048 145.63 789.362 145.63ZM789.362 138.7C791.415 138.7 793.328 138.21 795.102 137.23C796.922 136.25 798.392 134.78 799.512 132.82C800.632 130.86 801.192 128.48 801.192 125.68C801.192 122.88 800.655 120.523 799.582 118.61C798.508 116.65 797.085 115.18 795.312 114.2C793.538 113.22 791.625 112.73 789.572 112.73C787.518 112.73 785.605 113.22 783.832 114.2C782.105 115.18 780.728 116.65 779.702 118.61C778.675 120.523 778.162 122.88 778.162 125.68C778.162 129.833 779.212 133.053 781.312 135.34C783.458 137.58 786.142 138.7 789.362 138.7ZM811.81 125.68C811.81 121.713 812.604 118.237 814.19 115.25C815.824 112.217 818.064 109.883 820.91 108.25C823.757 106.617 827.024 105.8 830.71 105.8C835.377 105.8 839.227 106.92 842.26 109.16C845.34 111.353 847.417 114.503 848.49 118.61H839.88C839.18 116.697 838.06 115.203 836.52 114.13C834.98 113.057 833.044 112.52 830.71 112.52C827.444 112.52 824.83 113.687 822.87 116.02C820.957 118.307 820 121.527 820 125.68C820 129.833 820.957 133.077 822.87 135.41C824.83 137.743 827.444 138.91 830.71 138.91C835.33 138.91 838.387 136.88 839.88 132.82H848.49C847.37 136.74 845.27 139.867 842.19 142.2C839.11 144.487 835.284 145.63 830.71 145.63C827.024 145.63 823.757 144.813 820.91 143.18C818.064 141.5 815.824 139.167 814.19 136.18C812.604 133.147 811.81 129.647 811.81 125.68ZM870.373 145.63C866.733 145.63 863.443 144.813 860.503 143.18C857.563 141.5 855.253 139.167 853.573 136.18C851.893 133.147 851.053 129.647 851.053 125.68C851.053 121.76 851.916 118.283 853.643 115.25C855.37 112.217 857.726 109.883 860.713 108.25C863.7 106.617 867.036 105.8 870.723 105.8C874.41 105.8 877.746 106.617 880.733 108.25C883.72 109.883 886.076 112.217 887.803 115.25C889.53 118.283 890.393 121.76 890.393 125.68C890.393 129.6 889.506 133.077 887.733 136.11C885.96 139.143 883.533 141.5 880.453 143.18C877.42 144.813 874.06 145.63 870.373 145.63ZM870.373 138.7C872.426 138.7 874.34 138.21 876.113 137.23C877.933 136.25 879.403 134.78 880.523 132.82C881.643 130.86 882.203 128.48 882.203 125.68C882.203 122.88 881.666 120.523 880.593 118.61C879.52 116.65 878.096 115.18 876.323 114.2C874.55 113.22 872.636 112.73 870.583 112.73C868.53 112.73 866.616 113.22 864.843 114.2C863.116 115.18 861.74 116.65 860.713 118.61C859.686 120.523 859.173 122.88 859.173 125.68C859.173 129.833 860.223 133.053 862.323 135.34C864.47 137.58 867.153 138.7 870.373 138.7ZM903.462 93.2001V145H895.482V93.2001H903.462Z" fill="#00CC33"/>
<path d="M122.44 194.48C122.44 195.893 122.107 197.227 121.44 198.48C120.773 199.733 119.707 200.76 118.24 201.56C116.773 202.333 114.893 202.72 112.6 202.72H107.56V214H103V186.2H112.6C114.733 186.2 116.533 186.573 118 187.32C119.493 188.04 120.6 189.027 121.32 190.28C122.067 191.533 122.44 192.933 122.44 194.48ZM112.6 199C114.333 199 115.627 198.613 116.48 197.84C117.333 197.04 117.76 195.92 117.76 194.48C117.76 191.44 116.04 189.92 112.6 189.92H107.56V199H112.6ZM136.349 214.36C134.269 214.36 132.389 213.893 130.709 212.96C129.029 212 127.709 210.667 126.749 208.96C125.789 207.227 125.309 205.227 125.309 202.96C125.309 200.72 125.802 198.733 126.789 197C127.776 195.267 129.122 193.933 130.829 193C132.536 192.067 134.442 191.6 136.549 191.6C138.656 191.6 140.562 192.067 142.269 193C143.976 193.933 145.322 195.267 146.309 197C147.296 198.733 147.789 200.72 147.789 202.96C147.789 205.2 147.282 207.187 146.269 208.92C145.256 210.653 143.869 212 142.109 212.96C140.376 213.893 138.456 214.36 136.349 214.36ZM136.349 210.4C137.522 210.4 138.616 210.12 139.629 209.56C140.669 209 141.509 208.16 142.149 207.04C142.789 205.92 143.109 204.56 143.109 202.96C143.109 201.36 142.802 200.013 142.189 198.92C141.576 197.8 140.762 196.96 139.749 196.4C138.736 195.84 137.642 195.56 136.469 195.56C135.296 195.56 134.202 195.84 133.189 196.4C132.202 196.96 131.416 197.8 130.829 198.92C130.242 200.013 129.949 201.36 129.949 202.96C129.949 205.333 130.549 207.173 131.749 208.48C132.976 209.76 134.509 210.4 136.349 210.4ZM181.897 191.96L175.057 214H170.257L165.817 197.72L161.377 214H156.577L149.697 191.96H154.337L158.937 209.68L163.617 191.96H168.377L172.857 209.6L177.417 191.96H181.897ZM205.505 202.44C205.505 203.267 205.451 204.013 205.345 204.68H188.505C188.638 206.44 189.291 207.853 190.465 208.92C191.638 209.987 193.078 210.52 194.785 210.52C197.238 210.52 198.971 209.493 199.985 207.44H204.905C204.238 209.467 203.025 211.133 201.265 212.44C199.531 213.72 197.371 214.36 194.785 214.36C192.678 214.36 190.785 213.893 189.105 212.96C187.451 212 186.145 210.667 185.185 208.96C184.251 207.227 183.785 205.227 183.785 202.96C183.785 200.693 184.238 198.707 185.145 197C186.078 195.267 187.371 193.933 189.025 193C190.705 192.067 192.625 191.6 194.785 191.6C196.865 191.6 198.718 192.053 200.345 192.96C201.971 193.867 203.238 195.147 204.145 196.8C205.051 198.427 205.505 200.307 205.505 202.44ZM200.745 201C200.718 199.32 200.118 197.973 198.945 196.96C197.771 195.947 196.318 195.44 194.585 195.44C193.011 195.44 191.665 195.947 190.545 196.96C189.425 197.947 188.758 199.293 188.545 201H200.745ZM214.552 195.16C215.219 194.04 216.099 193.173 217.192 192.56C218.312 191.92 219.632 191.6 221.152 191.6V196.32H219.992C218.206 196.32 216.846 196.773 215.912 197.68C215.006 198.587 214.552 200.16 214.552 202.4V214H209.992V191.96H214.552V195.16ZM245.544 202.44C245.544 203.267 245.49 204.013 245.384 204.68H228.544C228.677 206.44 229.33 207.853 230.504 208.92C231.677 209.987 233.117 210.52 234.824 210.52C237.277 210.52 239.01 209.493 240.024 207.44H244.944C244.277 209.467 243.064 211.133 241.304 212.44C239.57 213.72 237.41 214.36 234.824 214.36C232.717 214.36 230.824 213.893 229.144 212.96C227.49 212 226.184 210.667 225.224 208.96C224.29 207.227 223.824 205.227 223.824 202.96C223.824 200.693 224.277 198.707 225.184 197C226.117 195.267 227.41 193.933 229.064 193C230.744 192.067 232.664 191.6 234.824 191.6C236.904 191.6 238.757 192.053 240.384 192.96C242.01 193.867 243.277 195.147 244.184 196.8C245.09 198.427 245.544 200.307 245.544 202.44ZM240.784 201C240.757 199.32 240.157 197.973 238.984 196.96C237.81 195.947 236.357 195.44 234.624 195.44C233.05 195.44 231.704 195.947 230.584 196.96C229.464 197.947 228.797 199.293 228.584 201H240.784ZM248.511 202.88C248.511 200.667 248.965 198.707 249.871 197C250.805 195.293 252.058 193.973 253.631 193.04C255.231 192.08 257.005 191.6 258.951 191.6C260.391 191.6 261.805 191.92 263.191 192.56C264.605 193.173 265.725 194 266.551 195.04V184.4H271.151V214H266.551V210.68C265.805 211.747 264.765 212.627 263.431 213.32C262.125 214.013 260.618 214.36 258.911 214.36C256.991 214.36 255.231 213.88 253.631 212.92C252.058 211.933 250.805 210.573 249.871 208.84C248.965 207.08 248.511 205.093 248.511 202.88ZM266.551 202.96C266.551 201.44 266.231 200.12 265.591 199C264.978 197.88 264.165 197.027 263.151 196.44C262.138 195.853 261.045 195.56 259.871 195.56C258.698 195.56 257.605 195.853 256.591 196.44C255.578 197 254.751 197.84 254.111 198.96C253.498 200.053 253.191 201.36 253.191 202.88C253.191 204.4 253.498 205.733 254.111 206.88C254.751 208.027 255.578 208.907 256.591 209.52C257.631 210.107 258.725 210.4 259.871 210.4C261.045 210.4 262.138 210.107 263.151 209.52C264.165 208.933 264.978 208.08 265.591 206.96C266.231 205.813 266.551 204.48 266.551 202.96ZM292.091 195.24C292.865 194.173 293.918 193.307 295.251 192.64C296.611 191.947 298.118 191.6 299.771 191.6C301.718 191.6 303.478 192.067 305.051 193C306.625 193.933 307.865 195.267 308.771 197C309.678 198.707 310.131 200.667 310.131 202.88C310.131 205.093 309.678 207.08 308.771 208.84C307.865 210.573 306.611 211.933 305.011 212.92C303.438 213.88 301.691 214.36 299.771 214.36C298.065 214.36 296.545 214.027 295.211 213.36C293.905 212.693 292.865 211.84 292.091 210.8V214H287.531V184.4H292.091V195.24ZM305.491 202.88C305.491 201.36 305.171 200.053 304.531 198.96C303.918 197.84 303.091 197 302.051 196.44C301.038 195.853 299.945 195.56 298.771 195.56C297.625 195.56 296.531 195.853 295.491 196.44C294.478 197.027 293.651 197.88 293.011 199C292.398 200.12 292.091 201.44 292.091 202.96C292.091 204.48 292.398 205.813 293.011 206.96C293.651 208.08 294.478 208.933 295.491 209.52C296.531 210.107 297.625 210.4 298.771 210.4C299.945 210.4 301.038 210.107 302.051 209.52C303.091 208.907 303.918 208.027 304.531 206.88C305.171 205.733 305.491 204.4 305.491 202.88ZM334.481 191.96L320.961 224.36H316.241L320.721 213.64L312.041 191.96H317.121L323.321 208.76L329.761 191.96H334.481Z" fill="white"/>
<path d="M367.814 197.287L381.813 214.075H373.798L361.587 198.973V214.075H355V181.063H361.587V195.899L373.838 181.075H381.77L367.814 197.287Z" fill="white"/>
<path d="M391.185 179.473V214.075H384.59V179.473H391.185Z" fill="white"/>
<path d="M396.922 178.14C400.547 175.086 406.54 179.278 402.812 183.296C399.183 186.334 393.195 182.157 396.922 178.14ZM403.141 188.17V214.075H396.546V188.17H403.141Z" fill="white"/>
<path d="M448.916 190.72C450.975 192.953 451.633 195.812 451.653 199.02V214.091H445.105C445.105 210.521 445.105 203.351 445.105 199.782C445.295 196.339 442.956 193.385 439.398 193.563C435.575 193.393 433.156 196.657 433.366 200.345C433.366 203.767 433.366 210.656 433.366 214.091H426.822C426.822 210.521 426.822 203.351 426.822 199.782C427.013 196.339 424.669 193.385 421.116 193.563C417.288 193.393 414.873 196.657 415.083 200.345C415.083 203.767 415.083 210.656 415.083 214.091H408.492V188.17H415.083V193.079C417.911 185.683 429.868 186.246 432.434 193.595C435.008 187.258 444.375 185.818 448.916 190.72Z" fill="white"/>
<path d="M472.56 189.387C474.089 190.378 475.255 191.838 475.884 193.547V188.17H482.427V214.075H475.884V208.653C472.881 216.859 460.115 215.852 456.966 208.205C454.587 203.01 454.904 195.804 458.727 191.378C462.035 187.571 468.337 186.683 472.56 189.387ZM464.049 195.606C461.511 198.437 461.495 203.791 464.049 206.619C466.552 209.312 471.446 209.284 473.94 206.571C476.582 203.756 476.566 198.445 473.94 195.63C471.442 192.913 466.54 192.885 464.049 195.606Z" fill="white"/>
<path d="M491.887 181.396V214.471H489.777V181.396H491.887Z" fill="white"/>
<path d="M518.635 191.295C520.781 193.484 521.411 196.355 521.451 199.599V214.471H519.341C519.341 210.783 519.341 203.367 519.341 199.695C519.571 194.376 516.244 190.069 510.755 190.264C504.767 190.065 501.328 195.205 501.61 200.912C501.61 204.287 501.61 211.096 501.61 214.471H499.496V188.999H501.582V195.705C503.125 188.233 513.591 186.159 518.635 191.295Z" fill="white"/>
<path d="M533.448 182.812C531.898 184.319 531.921 186.829 531.949 189.006H538.798V190.93H531.949V214.479H529.792V190.922H525.85V188.999H529.792C529.395 182.471 532.076 179.282 538.798 179.429V181.352C536.72 181.384 534.824 181.563 533.448 182.812Z" fill="white"/>
<path d="M543.791 180.06C545.508 178.473 548.062 180.853 546.397 182.594C544.648 184.16 542.193 181.84 543.791 180.06ZM546.17 188.999V214.471H544.057V188.999H546.17Z" fill="white"/>
<path d="M572.901 191.295C575.047 193.484 575.677 196.355 575.717 199.599V214.471H573.607C573.607 210.783 573.607 203.367 573.607 199.695C573.833 194.376 570.51 190.069 565.021 190.264C559.032 190.065 555.594 195.205 555.872 200.912C555.872 204.287 555.872 211.096 555.872 214.471H553.762V188.999H555.872V195.705C557.398 188.233 567.864 186.159 572.901 191.295Z" fill="white"/>
<path d="M582.775 180.06C584.492 178.473 587.042 180.853 585.377 182.594C583.632 184.16 581.173 181.84 582.775 180.06ZM585.155 188.999V214.471H583.045V188.999H585.155Z" fill="white"/>
<path d="M595.969 190.922V199.108C596.06 200.968 595.727 208.229 596.239 209.855C596.949 213.171 600.899 212.465 603.52 212.548V214.472C599.991 214.523 595.319 214.832 594.26 210.625C593.538 208.582 593.966 201.396 593.863 199.124V190.922H589.83V188.999H593.863V182.522H595.969V188.999H603.504V190.922H595.969Z" fill="white"/>
<path d="M608.459 188.999L618.029 211.656L626.904 188.999H629.248L614.471 226.48H612.032L616.91 214.329L606.123 188.999H608.459Z" fill="white"/>
<path d="M707.828 192.972C707.881 192.936 707.925 192.887 707.955 192.83C707.985 192.773 708.001 192.71 708.001 192.645C708.001 192.581 707.985 192.517 707.955 192.46C707.925 192.403 707.881 192.354 707.828 192.318C704.021 189.752 679.671 173.246 674.555 169.832C672.909 168.737 672.453 168.217 670.264 169.792C667.17 172.017 655.776 179.996 652.897 182.035C650.387 183.811 650.557 183.958 650.557 186.119V210.759C650.557 213.912 650.918 214.475 652.143 215.3C654.789 217.069 665.754 224.612 670.386 227.991C672.516 229.554 673.654 228.419 674.475 227.86C683.962 221.439 731.929 189.229 751.1 176.149C751.81 175.665 752.809 175.316 753.904 176.256C753.987 176.328 764.04 183.375 767.062 185.433C768.395 186.337 768.312 187.119 768.312 188.209C768.312 193.309 768.355 203.91 768.355 209.494C768.355 211.005 767.705 211.58 766.678 212.298C763.275 214.678 757.009 219.04 753.947 221.261C752.777 222.106 752.361 222.252 750.299 220.864L721.939 201.745C721.805 201.664 721.651 201.621 721.495 201.621C721.338 201.621 721.185 201.664 721.05 201.745L717.013 204.473C716.922 204.52 716.846 204.591 716.793 204.678C716.74 204.765 716.712 204.865 716.712 204.967C716.712 205.069 716.74 205.169 716.793 205.256C716.846 205.343 716.922 205.414 717.013 205.461C721.32 208.352 743.43 223.184 750.723 228.066C751.627 228.673 752.611 229.256 753.991 228.273C758.631 224.993 768.22 218.306 772.738 215.185C774.094 214.249 774.261 213.305 774.261 212.465V184.922C774.261 183.161 773.178 182.74 772.333 182.146C767.911 179.08 759.246 172.996 754.772 169.784C752.904 168.44 752.071 168.551 750.247 169.784C743.811 174.146 686.892 212.556 673.96 221.285C672.77 222.078 671.663 221.753 670.39 220.852C667.031 218.473 661.713 214.689 659.044 212.921C658.136 212.318 656.51 211.628 656.51 209.351C656.51 204.243 656.55 193.206 656.55 187.845C656.564 187.36 656.697 186.885 656.936 186.463C657.175 186.041 657.513 185.683 657.922 185.421C660.928 183.359 668.439 178.057 670.973 176.252C672.29 175.316 672.417 175.352 674.071 176.486C679.294 180.075 699.548 193.658 702.748 195.808C702.879 195.897 703.034 195.944 703.192 195.944C703.35 195.944 703.505 195.897 703.636 195.808L707.828 192.972Z" fill="url(#paint2_linear_403_92041)"/>
<g opacity="0.6" filter="url(#filter1_f_403_92041)">
<path d="M1223.07 97.63H1180.68C1157.58 97.63 1135.87 106.623 1119.53 122.958C1112.29 130.202 1106.46 138.518 1102.2 147.689C1098.67 155.288 1096.29 163.324 1095.1 171.634C1087.43 163.475 1076.64 158.728 1065.35 158.728H1033.19L1036.86 162.404L1094.83 220.375L1098.66 224.196L1100.18 225.719L1101.7 224.196L1105.52 220.375L1224.59 101.3L1228.27 97.624H1223.07V97.63ZM1106.15 202.84V184.115C1106.15 143.017 1139.59 109.583 1180.68 109.583H1199.41L1106.15 202.84Z" fill="#00CC33"/>
<path d="M1180.95 161.672C1179.83 180.504 1171.96 198.055 1158.51 211.51C1143.95 226.069 1124.59 234.088 1104.01 234.088C1083.42 234.088 1064.06 226.069 1049.5 211.51C1034.94 196.952 1026.92 177.592 1026.92 157.005C1026.92 136.419 1034.94 117.059 1049.5 102.501C1064.06 87.942 1083.42 79.922 1104.01 79.922C1119.46 79.922 1134.22 84.443 1146.78 92.856C1146.78 92.856 1149.11 91.968 1154.43 90.708C1159.74 89.449 1162.83 88.895 1162.83 88.895C1147.06 75.2508 1126.49 67 1104 67C1054.3 67 1014 107.296 1014 157C1014 206.704 1054.3 247 1104 247C1153.7 247 1194 206.704 1194 157C1194 154.411 1193.89 151.844 1193.68 149.309L1180.95 161.672Z" fill="#00CC33"/>
</g>
<path d="M1223.07 97.63H1180.68C1157.58 97.63 1135.87 106.623 1119.53 122.958C1112.29 130.202 1106.46 138.518 1102.2 147.689C1098.67 155.288 1096.29 163.324 1095.1 171.634C1087.43 163.475 1076.64 158.728 1065.35 158.728H1033.19L1036.86 162.404L1094.83 220.375L1098.66 224.196L1100.18 225.719L1101.7 224.196L1105.52 220.375L1224.59 101.3L1228.27 97.624H1223.07V97.63ZM1106.15 202.84V184.115C1106.15 143.017 1139.59 109.583 1180.68 109.583H1199.41L1106.15 202.84Z" fill="url(#paint3_radial_403_92041)"/>
<path d="M1180.95 161.672C1179.83 180.504 1171.96 198.055 1158.51 211.51C1143.95 226.069 1124.59 234.088 1104.01 234.088C1083.42 234.088 1064.06 226.069 1049.5 211.51C1034.94 196.952 1026.92 177.592 1026.92 157.005C1026.92 136.419 1034.94 117.059 1049.5 102.501C1064.06 87.942 1083.42 79.922 1104.01 79.922C1119.46 79.922 1134.22 84.443 1146.78 92.856C1146.78 92.856 1149.11 91.968 1154.43 90.708C1159.74 89.449 1162.83 88.895 1162.83 88.895C1147.06 75.2508 1126.49 67 1104 67C1054.3 67 1014 107.296 1014 157C1014 206.704 1054.3 247 1104 247C1153.7 247 1194 206.704 1194 157C1194 154.411 1193.89 151.844 1193.68 149.309L1180.95 161.672Z" fill="url(#paint4_radial_403_92041)"/>
</g>
<defs>
<filter id="filter0_i_403_92041" x="0" y="0" width="1294" height="330" filterUnits="userSpaceOnUse" color-interpolation-filters="sRGB">
<feFlood flood-opacity="0" result="BackgroundImageFix"/>
<feBlend mode="normal" in="SourceGraphic" in2="BackgroundImageFix" result="shape"/>
<feColorMatrix in="SourceAlpha" type="matrix" values="0 0 0 0 0 0 0 0 0 0 0 0 0 0 0 0 0 0 127 0" result="hardAlpha"/>
<feOffset dy="16"/>
<feGaussianBlur stdDeviation="20"/>
<feComposite in2="hardAlpha" operator="arithmetic" k2="-1" k3="1"/>
<feColorMatrix type="matrix" values="0 0 0 0 0 0 0 0 0 0 0 0 0 0 0 0 0 0 0.16 0"/>
<feBlend mode="normal" in2="shape" result="effect1_innerShadow_403_92041"/>
</filter>
<filter id="filter1_f_403_92041" x="984" y="37" width="274.27" height="240" filterUnits="userSpaceOnUse" color-interpolation-filters="sRGB">
<feFlood flood-opacity="0" result="BackgroundImageFix"/>
<feBlend mode="normal" in="SourceGraphic" in2="BackgroundImageFix" result="shape"/>
<feGaussianBlur stdDeviation="15" result="effect1_foregroundBlur_403_92041"/>
</filter>
<radialGradient id="paint0_radial_403_92041" cx="0" cy="0" r="1" gradientUnits="userSpaceOnUse" gradientTransform="translate(-759 1268) rotate(-31.8901) scale(2423.85 9988.73)">
<stop stop-color="#00395E"/>
<stop offset="1"/>
</radialGradient>
<linearGradient id="paint1_linear_403_92041" x1="1294" y1="157" x2="0" y2="157" gradientUnits="userSpaceOnUse">
<stop stop-color="#00FFCC"/>
<stop offset="0.365104" stop-color="#00CC33"/>
<stop offset="1" stop-color="#00B2D9"/>
</linearGradient>
<linearGradient id="paint2_linear_403_92041" x1="650.553" y1="198.802" x2="774.245" y2="198.802" gradientUnits="userSpaceOnUse">
<stop stop-color="#008E8A"/>
<stop offset="0.5" stop-color="#00CC33"/>
<stop offset="1" stop-color="#00FFCC"/>
</linearGradient>
<radialGradient id="paint3_radial_403_92041" cx="0" cy="0" r="1" gradientUnits="userSpaceOnUse" gradientTransform="translate(1039.56 161.316) rotate(-7.85354) scale(187.491 180.501)">
<stop stop-color="#3EB3FF"/>
<stop offset="1" stop-color="#33D75C"/>
</radialGradient>
<radialGradient id="paint4_radial_403_92041" cx="0" cy="0" r="1" gradientUnits="userSpaceOnUse" gradientTransform="translate(1019.88 156.5) rotate(-11.8634) scale(175.114 250.575)">
<stop stop-color="#3EB3FF"/>
<stop offset="1" stop-color="#33D75C"/>
</radialGradient>
<clipPath id="clip0_403_92041">
<rect width="1294" height="314" fill="white"/>
</clipPath>
</defs>
</svg>
