<svg width="154" height="49" viewBox="0 0 154 49" fill="none" xmlns="http://www.w3.org/2000/svg">
<path d="M27.5188 11.7401C26.5947 11.7401 25.8389 10.9718 25.8389 10.0329V3.8869C25.8389 2.94794 26.5947 2.17969 27.5188 2.17969C28.4422 2.17969 29.198 2.94794 29.198 3.8869V10.0329C29.198 10.9718 28.4422 11.7401 27.5188 11.7401Z" fill="url(#paint0_linear)"/>
<path d="M42.0084 9.4171C41.4913 10.0674 40.6011 10.237 39.8542 9.86946L27.6479 3.48008C26.8155 3.056 25.8389 3.6497 25.8389 4.55439V3.22563C25.8389 1.16181 28.0787 -0.138688 29.917 0.822546L41.4628 6.90093C42.41 7.38155 42.669 8.59725 42.0084 9.4171Z" fill="url(#paint1_linear)"/>
<path d="M41.7729 11.697L30.689 17.8917C28.4722 19.1307 25.9932 19.7501 23.5134 19.7501V16.4557C25.2347 16.4557 26.9262 16.0333 28.4432 15.1886L40.7811 8.34623C41.5099 7.95198 41.4809 6.93832 40.7514 6.57227L41.6852 7.05095C43.6101 8.03645 43.639 10.6552 41.7729 11.697Z" fill="url(#paint2_linear)"/>
<path d="M32.5154 33.2711C32.9725 32.4479 34.0277 32.1641 34.8554 32.6466L40.2191 35.6836C41.0468 36.1377 41.3324 37.1879 40.847 38.011C40.3906 38.8341 39.3347 39.1179 38.5077 38.6354L33.1716 35.5985C32.3446 35.1159 32.059 34.0941 32.5154 33.2711Z" fill="url(#paint3_linear)"/>
<path d="M27.5174 46.9567C27.2014 46.2081 27.4881 45.3156 28.1779 44.8837L39.8372 37.4841C40.6125 36.9946 40.584 35.8142 39.8087 35.3823L40.9863 36.0445C42.7952 37.081 42.853 39.6723 41.0719 40.7952L29.9868 47.7917C29.1251 48.3387 27.919 47.9645 27.5174 46.9567Z" fill="url(#paint4_linear)"/>
<path d="M25.9264 45.5062L25.8399 32.9921C25.8103 30.4836 26.478 28.0606 27.6972 25.9512L30.6585 27.6045C29.817 29.0583 29.352 30.7116 29.352 32.422L29.4104 46.3328C29.4104 47.131 30.3102 47.6156 31.0067 47.188L30.1069 47.7296C28.3072 48.8984 25.9264 47.6156 25.9264 45.5062Z" fill="url(#paint5_linear)"/>
<path d="M38.7449 26.0396L44.0974 29.0855C44.9225 29.5408 45.2075 30.5941 44.7238 31.4196C44.2678 32.2451 43.2149 32.5298 42.3891 32.0458L37.0373 29.0001C36.2115 28.5446 35.9265 27.4914 36.4109 26.6659C36.8662 25.8688 37.9197 25.5842 38.7449 26.0396Z" fill="url(#paint6_linear)"/>
<path d="M45.8207 15.3801C46.883 15.2075 47.8306 16.042 47.8013 17.1067L47.4285 30.2286C47.3707 32.3293 45.1319 33.5954 43.2946 32.5594L42.1174 31.8976C42.9217 32.358 43.9263 31.7825 43.9548 30.8617L44.3569 17.0204C44.3854 16.1858 44.9886 15.4952 45.8207 15.3801Z" fill="url(#paint7_linear)"/>
<path d="M47.801 17.0772L47.7717 18.1C47.801 17.3045 46.9098 16.7931 46.2193 17.1908L34.1162 24.2085C32.621 25.0893 31.4135 26.311 30.5795 27.76L27.6476 26.1121C28.8551 24.0096 30.6088 22.2197 32.7938 20.9696L43.6895 14.6906C45.5581 13.6394 47.8581 14.9747 47.801 17.0772Z" fill="url(#paint8_linear)"/>
<path d="M14.6135 35.6126L9.09242 38.6539C8.24044 39.1086 7.15357 38.8244 6.68382 38.0285C6.21406 37.2042 6.50802 36.1526 7.3301 35.6979L12.8512 32.6281C13.7032 32.1734 14.79 32.4576 15.2598 33.2535C15.7587 34.1061 15.4655 35.1294 14.6135 35.6126Z" fill="url(#paint9_linear)"/>
<path d="M20.2853 46.9676C19.8838 47.9738 18.7084 48.3474 17.7915 47.7725L6.72699 40.7869C4.95006 39.6657 5.00773 37.0785 6.81313 36.0435L7.9885 35.3823C7.18617 35.8423 7.15698 36.9922 7.96001 37.4809L19.6261 44.8978C20.3138 45.329 20.6 46.2202 20.2853 46.9676Z" fill="url(#paint10_linear)"/>
<path d="M17.695 47.7468L16.7953 47.2055C17.4917 47.6328 18.3914 47.1485 18.3914 46.3507L18.4498 32.4471C18.4498 30.7092 17.9855 29.0852 17.1435 27.6322L20.1043 25.9512C21.3234 28.0595 21.991 30.4813 21.9622 32.9885L21.875 45.496C21.875 47.6043 19.524 48.8864 17.695 47.7468Z" fill="url(#paint11_linear)"/>
<path d="M11.1572 26.6847C11.6011 27.5102 11.324 28.5634 10.5466 29.0188L5.32985 32.0646C4.52484 32.5201 3.49858 32.2354 3.05403 31.4384C2.61017 30.6129 2.88793 29.5597 3.66468 29.1042L8.8821 26.0584C9.68643 25.5745 10.7134 25.8592 11.1572 26.6847Z" fill="url(#paint12_linear)"/>
<path d="M1.99201 15.3801C2.7996 15.4953 3.40511 16.1859 3.43449 17.0203L3.83793 30.8616C3.86731 31.7824 4.87697 32.358 5.68456 31.8976L4.50148 32.5594C2.68423 33.5954 0.404779 32.3292 0.347453 30.2285L0.000630852 17.1067C-0.0280325 16.042 0.924301 15.2075 1.99201 15.3801Z" fill="url(#paint13_linear)"/>
<path d="M18.3456 10.0329V3.8869C18.3456 2.94793 19.0438 2.17969 19.896 2.17969C20.7488 2.17969 21.4463 2.94793 21.4463 3.8869V10.0329C21.4463 10.9719 20.7488 11.7401 19.896 11.7401C19.0438 11.7401 18.3456 10.9719 18.3456 10.0329Z" fill="url(#paint14_linear)"/>
<path d="M5.54997 9.41788C4.87062 8.59902 5.12564 7.3848 6.08741 6.87653L17.4299 0.833726C19.2403 -0.154582 21.4463 1.17257 21.4463 3.23391V4.56106C21.4463 3.65746 20.4564 3.06448 19.6647 3.48804L7.64284 9.86969C6.93608 10.2368 6.03051 10.0674 5.54997 9.41788Z" fill="url(#paint15_linear)"/>
<path d="M5.82969 7.05095L6.75101 6.57227C6.0314 6.96648 6.00207 7.95201 6.72239 8.34619L18.9049 15.1885C20.4313 16.0333 22.1016 16.4556 23.7718 16.4556V19.7501C21.324 19.7501 18.8762 19.1306 16.6874 17.8917L5.74314 11.697C3.89978 10.6551 3.95772 8.03648 5.82969 7.05095Z" fill="url(#paint16_linear)"/>
<path d="M4.08976 14.6898L15.0009 20.9556C17.189 22.2031 18.9452 23.9892 20.1544 26.0873L17.2469 27.76C16.4117 26.314 15.2026 25.0949 13.7052 24.216L1.58491 17.1848C0.894155 16.7879 0.00104512 17.2982 0.0303627 18.092L0.00104485 17.0714C-0.0561601 14.9734 2.24705 13.6408 4.08976 14.6898Z" fill="url(#paint17_linear)"/>
<path d="M87.6421 19.8578H91.2114V34.8208H87.7087L87.5424 32.6263C86.6746 34.3886 84.3397 35.2199 82.6715 35.2531C78.2353 35.2864 74.9329 32.5598 74.9329 27.3061C74.9329 22.1522 78.369 19.4588 82.7388 19.492C84.7403 19.492 86.6746 20.4231 87.5084 21.9194L87.6421 19.8578ZM78.6359 27.3393C78.6359 30.1989 80.6035 31.8948 83.0721 31.8948C88.9097 31.8948 88.9097 22.8172 83.0721 22.8172C80.6035 22.8172 78.6359 24.4797 78.6359 27.3393Z" fill="white"/>
<path d="M98.6533 14.0654V22.3679C100.031 20.641 101.719 20.1096 103.476 20.1096C107.886 20.1096 109.815 22.9989 109.815 27.3826V35.2533H105.991V27.4158C105.991 24.6926 104.51 23.5303 102.477 23.5303C100.203 23.5303 98.6533 25.39 98.6533 27.6151V35.2533H94.8289V14.0654H98.6533Z" fill="white"/>
<path d="M123.585 35.2191V26.9252C123.585 24.8948 122.506 23.0364 120.382 23.0364C118.293 23.0364 117.039 24.8948 117.039 26.9252V35.2191H113.174V19.7326H116.761L117.039 21.6254C117.875 20.0424 119.685 19.4917 121.183 19.4917C123.063 19.4917 124.943 20.2488 125.813 22.3825C127.206 20.18 129.017 19.5605 131.071 19.5605C135.528 19.5605 137.721 22.2448 137.721 26.8908V35.2534H133.857V26.8908C133.857 24.8603 132.986 23.1396 130.897 23.1396C128.808 23.1396 127.485 24.9291 127.485 26.9596V35.2534L123.585 35.2191Z" fill="white"/>
<path d="M141.856 20.2666V35.2532H145.215V20.2666H141.856Z" fill="white"/>
<path d="M149.866 20.2666V35.2532H153.225V20.2666H149.866Z" fill="white"/>
<path d="M153.286 17.4893C152.81 17.9833 152.245 18.1994 151.56 18.1994C150.875 18.1994 150.281 17.9524 149.805 17.4893C149.328 16.9952 149.091 16.4086 149.091 15.7293C149.091 15.05 149.328 14.4634 149.805 14.0002C150.281 13.5062 150.875 13.29 151.56 13.29C152.245 13.29 152.81 13.5371 153.286 14.0002C153.762 14.4942 154 15.05 154 15.7293C154 16.4086 153.762 17.0261 153.286 17.4893Z" fill="url(#paint18_linear)"/>
<path d="M145.276 17.4893C144.8 17.9833 144.234 18.1994 143.55 18.1994C142.865 18.1994 142.271 17.9524 141.795 17.4893C141.318 16.9952 141.081 16.4086 141.081 15.7293C141.081 15.05 141.318 14.4634 141.795 14.0002C142.271 13.5062 142.865 13.29 143.55 13.29C144.234 13.29 144.8 13.5371 145.276 14.0002C145.752 14.4942 145.99 15.05 145.99 15.7293C145.99 16.4086 145.752 17.0261 145.276 17.4893Z" fill="url(#paint19_linear)"/>
<path d="M73.1242 35.2535H69.2462L60.4653 22.3278V35.2535H56.5873V16.3911H60.4653L69.2462 29.3438V16.3911H73.1242V35.2535Z" fill="white"/>
<defs>
<linearGradient id="paint0_linear" x1="27.5216" y1="7.4336" x2="27.5216" y2="-2.04221" gradientUnits="userSpaceOnUse">
<stop stop-color="#8F2B83"/>
<stop offset="0.0567148" stop-color="#862C84"/>
<stop offset="0.3369" stop-color="#602E8A"/>
<stop offset="0.5956" stop-color="#45308E"/>
<stop offset="0.823" stop-color="#343191"/>
<stop offset="0.9944" stop-color="#2E3192"/>
</linearGradient>
<linearGradient id="paint1_linear" x1="40.574" y1="9.15038" x2="26.6595" y2="1.82894" gradientUnits="userSpaceOnUse">
<stop stop-color="#8F2B83"/>
<stop offset="0.1022" stop-color="#A02888"/>
<stop offset="0.3687" stop-color="#C62293"/>
<stop offset="0.6149" stop-color="#E11E9B"/>
<stop offset="0.8313" stop-color="#F21BA0"/>
<stop offset="0.9944" stop-color="#F81AA2"/>
</linearGradient>
<linearGradient id="paint2_linear" x1="28.4997" y1="16.147" x2="50.441" y2="3.37173" gradientUnits="userSpaceOnUse">
<stop stop-color="#02A5DC"/>
<stop offset="0.1446" stop-color="#029CD7"/>
<stop offset="0.385" stop-color="#0182CB"/>
<stop offset="0.6898" stop-color="#0159B7"/>
<stop offset="0.9944" stop-color="#00299F"/>
</linearGradient>
<linearGradient id="paint3_linear" x1="36.0891" y1="35.4064" x2="44.3242" y2="40.1197" gradientUnits="userSpaceOnUse">
<stop stop-color="#8F2B83"/>
<stop offset="0.0567148" stop-color="#862C84"/>
<stop offset="0.3369" stop-color="#602E8A"/>
<stop offset="0.5956" stop-color="#45308E"/>
<stop offset="0.823" stop-color="#343191"/>
<stop offset="0.9944" stop-color="#2E3192"/>
</linearGradient>
<linearGradient id="paint4_linear" x1="28.2827" y1="45.8562" x2="41.5374" y2="37.2828" gradientUnits="userSpaceOnUse">
<stop stop-color="#8F2B83"/>
<stop offset="0.1022" stop-color="#A02888"/>
<stop offset="0.3687" stop-color="#C62293"/>
<stop offset="0.6149" stop-color="#E11E9B"/>
<stop offset="0.8313" stop-color="#F21BA0"/>
<stop offset="0.9944" stop-color="#F81AA2"/>
</linearGradient>
<linearGradient id="paint5_linear" x1="28.2769" y1="32.0024" x2="28.1414" y2="57.029" gradientUnits="userSpaceOnUse">
<stop stop-color="#02A5DC"/>
<stop offset="0.1446" stop-color="#029CD7"/>
<stop offset="0.385" stop-color="#0182CB"/>
<stop offset="0.6898" stop-color="#0159B7"/>
<stop offset="0.9944" stop-color="#00299F"/>
</linearGradient>
<linearGradient id="paint6_linear" x1="40.1491" y1="28.631" x2="48.3866" y2="33.3215" gradientUnits="userSpaceOnUse">
<stop stop-color="#8F2B83"/>
<stop offset="0.0567148" stop-color="#862C84"/>
<stop offset="0.3369" stop-color="#602E8A"/>
<stop offset="0.5956" stop-color="#45308E"/>
<stop offset="0.823" stop-color="#343191"/>
<stop offset="0.9944" stop-color="#2E3192"/>
</linearGradient>
<linearGradient id="paint7_linear" x1="45.3308" y1="16.5637" x2="44.7022" y2="32.3565" gradientUnits="userSpaceOnUse">
<stop stop-color="#8F2B83"/>
<stop offset="0.1022" stop-color="#A02888"/>
<stop offset="0.3687" stop-color="#C62293"/>
<stop offset="0.6149" stop-color="#E11E9B"/>
<stop offset="0.8313" stop-color="#F21BA0"/>
<stop offset="0.9944" stop-color="#F81AA2"/>
</linearGradient>
<linearGradient id="paint8_linear" x1="33.2686" y1="23.5188" x2="54.7668" y2="10.4456" gradientUnits="userSpaceOnUse">
<stop stop-color="#02A5DC"/>
<stop offset="0.1446" stop-color="#029CD7"/>
<stop offset="0.385" stop-color="#0182CB"/>
<stop offset="0.6898" stop-color="#0159B7"/>
<stop offset="0.9944" stop-color="#00299F"/>
</linearGradient>
<linearGradient id="paint9_linear" x1="11.5973" y1="35.4203" x2="3.23728" y2="40.3385" gradientUnits="userSpaceOnUse">
<stop stop-color="#8F2B83"/>
<stop offset="0.0567148" stop-color="#862C84"/>
<stop offset="0.3369" stop-color="#602E8A"/>
<stop offset="0.5956" stop-color="#45308E"/>
<stop offset="0.823" stop-color="#343191"/>
<stop offset="0.9944" stop-color="#2E3192"/>
</linearGradient>
<linearGradient id="paint10_linear" x1="19.5364" y1="45.8688" x2="6.30426" y2="37.3132" gradientUnits="userSpaceOnUse">
<stop stop-color="#8F2B83"/>
<stop offset="0.1022" stop-color="#A02888"/>
<stop offset="0.3687" stop-color="#C62293"/>
<stop offset="0.6149" stop-color="#E11E9B"/>
<stop offset="0.8313" stop-color="#F21BA0"/>
<stop offset="0.9944" stop-color="#F81AA2"/>
</linearGradient>
<linearGradient id="paint11_linear" x1="19.5406" y1="31.9993" x2="19.6759" y2="57.0127" gradientUnits="userSpaceOnUse">
<stop stop-color="#02A5DC"/>
<stop offset="0.1446" stop-color="#029CD7"/>
<stop offset="0.385" stop-color="#0182CB"/>
<stop offset="0.6898" stop-color="#0159B7"/>
<stop offset="0.9944" stop-color="#00299F"/>
</linearGradient>
<linearGradient id="paint12_linear" x1="7.52847" y1="28.6213" x2="-0.600334" y2="33.1332" gradientUnits="userSpaceOnUse">
<stop stop-color="#8F2B83"/>
<stop offset="0.0567148" stop-color="#862C84"/>
<stop offset="0.3369" stop-color="#602E8A"/>
<stop offset="0.5956" stop-color="#45308E"/>
<stop offset="0.823" stop-color="#343191"/>
<stop offset="0.9944" stop-color="#2E3192"/>
</linearGradient>
<linearGradient id="paint13_linear" x1="2.47141" y1="16.5638" x2="3.09692" y2="32.3567" gradientUnits="userSpaceOnUse">
<stop stop-color="#8F2B83"/>
<stop offset="0.1022" stop-color="#A02888"/>
<stop offset="0.3687" stop-color="#C62293"/>
<stop offset="0.6149" stop-color="#E11E9B"/>
<stop offset="0.8313" stop-color="#F21BA0"/>
<stop offset="0.9944" stop-color="#F81AA2"/>
</linearGradient>
<linearGradient id="paint14_linear" x1="19.9473" y1="7.38923" x2="19.9473" y2="-2.0869" gradientUnits="userSpaceOnUse">
<stop stop-color="#8F2B83"/>
<stop offset="0.0567148" stop-color="#862C84"/>
<stop offset="0.3369" stop-color="#602E8A"/>
<stop offset="0.5956" stop-color="#45308E"/>
<stop offset="0.823" stop-color="#343191"/>
<stop offset="0.9944" stop-color="#2E3192"/>
</linearGradient>
<linearGradient id="paint15_linear" x1="6.99228" y1="9.10757" x2="20.7798" y2="1.95399" gradientUnits="userSpaceOnUse">
<stop stop-color="#8F2B83"/>
<stop offset="0.1022" stop-color="#A02888"/>
<stop offset="0.3687" stop-color="#C62293"/>
<stop offset="0.6149" stop-color="#E11E9B"/>
<stop offset="0.8313" stop-color="#F21BA0"/>
<stop offset="0.9944" stop-color="#F81AA2"/>
</linearGradient>
<linearGradient id="paint16_linear" x1="18.9084" y1="16.1034" x2="-2.89528" y2="3.56808" gradientUnits="userSpaceOnUse">
<stop stop-color="#02A5DC"/>
<stop offset="0.1446" stop-color="#029CD7"/>
<stop offset="0.385" stop-color="#0182CB"/>
<stop offset="0.6898" stop-color="#0159B7"/>
<stop offset="0.9944" stop-color="#00299F"/>
</linearGradient>
<linearGradient id="paint17_linear" x1="14.5411" y1="23.4995" x2="-6.94642" y2="10.3864" gradientUnits="userSpaceOnUse">
<stop stop-color="#02A5DC"/>
<stop offset="0.1446" stop-color="#029CD7"/>
<stop offset="0.385" stop-color="#0182CB"/>
<stop offset="0.6898" stop-color="#0159B7"/>
<stop offset="0.9944" stop-color="#00299F"/>
</linearGradient>
<linearGradient id="paint18_linear" x1="149.091" y1="15.7447" x2="154.008" y2="15.7447" gradientUnits="userSpaceOnUse">
<stop stop-color="#8F2B83"/>
<stop offset="0.1022" stop-color="#A02888"/>
<stop offset="0.3687" stop-color="#C62293"/>
<stop offset="0.6149" stop-color="#E11E9B"/>
<stop offset="0.8313" stop-color="#F21BA0"/>
<stop offset="0.9944" stop-color="#F81AA2"/>
</linearGradient>
<linearGradient id="paint19_linear" x1="141.069" y1="15.7447" x2="145.986" y2="15.7447" gradientUnits="userSpaceOnUse">
<stop stop-color="#8F2B83"/>
<stop offset="0.1022" stop-color="#A02888"/>
<stop offset="0.3687" stop-color="#C62293"/>
<stop offset="0.6149" stop-color="#E11E9B"/>
<stop offset="0.8313" stop-color="#F21BA0"/>
<stop offset="0.9944" stop-color="#F81AA2"/>
</linearGradient>
</defs>
</svg>
