<svg xmlns="http://www.w3.org/2000/svg" xmlns:xlink="http://www.w3.org/1999/xlink" viewBox="0 0 551 535"><defs><style>.cls-1,.cls-2,.cls-3{fill:none;stroke:#efe9e0;stroke-linecap:round;}.cls-1{stroke-width:2px;stroke-dasharray:6 10;}.cls-3{opacity:0.2;isolation:isolate;}.cls-4{fill:#141722;}.cls-5{fill:url(#linear-gradient);}.cls-6{fill:url(#linear-gradient-2);}.cls-7{fill:url(#linear-gradient-3);}.cls-8{fill:url(#linear-gradient-4);}.cls-9{fill:url(#linear-gradient-5);}.cls-10{fill:url(#linear-gradient-6);}.cls-11{fill:url(#linear-gradient-7);}.cls-12{fill:url(#linear-gradient-8);}.cls-13{fill:url(#linear-gradient-9);}.cls-14{fill:url(#linear-gradient-10);}.cls-15{fill:url(#linear-gradient-11);}.cls-16{fill:url(#linear-gradient-12);}.cls-17{fill:url(#linear-gradient-13);}.cls-18{fill:url(#linear-gradient-14);}.cls-19{fill:url(#linear-gradient-15);}.cls-20{fill:url(#linear-gradient-16);}.cls-21{fill:url(#linear-gradient-17);}.cls-22{fill:url(#linear-gradient-18);}</style><linearGradient id="linear-gradient" x1="280.04" y1="1278.55" x2="280.04" y2="1267.93" gradientTransform="translate(0 -1030)" gradientUnits="userSpaceOnUse"><stop offset="0" stop-color="#8f2b83"/><stop offset="0.06" stop-color="#862c84"/><stop offset="0.34" stop-color="#602e8a"/><stop offset="0.6" stop-color="#45308e"/><stop offset="0.82" stop-color="#343191"/><stop offset="0.99" stop-color="#2e3192"/></linearGradient><linearGradient id="linear-gradient-2" x1="294.59" y1="1280.69" x2="278.98" y2="1272.48" gradientTransform="translate(0 -1030)" gradientUnits="userSpaceOnUse"><stop offset="0" stop-color="#8f2b83"/><stop offset="0.1" stop-color="#a02888"/><stop offset="0.37" stop-color="#c62293"/><stop offset="0.61" stop-color="#e11e9b"/><stop offset="0.83" stop-color="#f21ba0"/><stop offset="0.99" stop-color="#f81aa2"/></linearGradient><linearGradient id="linear-gradient-3" x1="281.34" y1="1288.63" x2="305.95" y2="1274.31" gradientTransform="translate(0 -1030)" gradientUnits="userSpaceOnUse"><stop offset="0" stop-color="#02a5dc"/><stop offset="0.14" stop-color="#029cd7"/><stop offset="0.39" stop-color="#0182cb"/><stop offset="0.69" stop-color="#0159b7"/><stop offset="0.99" stop-color="#00299f"/></linearGradient><linearGradient id="linear-gradient-4" x1="289.72" y1="1309.83" x2="298.96" y2="1315.12" xlink:href="#linear-gradient"/><linearGradient id="linear-gradient-5" x1="280.99" y1="1321.76" x2="295.85" y2="1312.14" xlink:href="#linear-gradient-2"/><linearGradient id="linear-gradient-6" x1="281.15" y1="1306.11" x2="281" y2="1334.17" xlink:href="#linear-gradient-3"/><linearGradient id="linear-gradient-7" x1="294.16" y1="1302.44" x2="303.39" y2="1307.7" xlink:href="#linear-gradient"/><linearGradient id="linear-gradient-8" x1="300.03" y1="1288.79" x2="299.32" y2="1306.5" xlink:href="#linear-gradient-2"/><linearGradient id="linear-gradient-9" x1="286.68" y1="1296.88" x2="310.79" y2="1282.22" xlink:href="#linear-gradient-3"/><linearGradient id="linear-gradient-10" x1="262.13" y1="1309.81" x2="252.75" y2="1315.33" xlink:href="#linear-gradient"/><linearGradient id="linear-gradient-11" x1="271.05" y1="1321.74" x2="256.21" y2="1312.15" xlink:href="#linear-gradient-2"/><linearGradient id="linear-gradient-12" x1="270.96" y1="1306.1" x2="271.11" y2="1334.16" xlink:href="#linear-gradient-3"/><linearGradient id="linear-gradient-13" x1="257.74" y1="1302.5" x2="248.63" y2="1307.56" xlink:href="#linear-gradient"/><linearGradient id="linear-gradient-14" x1="251.81" y1="1288.8" x2="252.51" y2="1306.51" xlink:href="#linear-gradient-2"/><linearGradient id="linear-gradient-15" x1="271.51" y1="1278.5" x2="271.51" y2="1267.88" xlink:href="#linear-gradient"/><linearGradient id="linear-gradient-16" x1="257.05" y1="1280.45" x2="272.51" y2="1272.43" xlink:href="#linear-gradient-2"/><linearGradient id="linear-gradient-17" x1="270.24" y1="1288.56" x2="245.79" y2="1274.5" xlink:href="#linear-gradient-3"/><linearGradient id="linear-gradient-18" x1="265.34" y1="1296.85" x2="241.24" y2="1282.14" xlink:href="#linear-gradient-3"/></defs><title>nahim tentacles png</title><g id="Layer_2" data-name="Layer 2"><g id="Layer_1-2" data-name="Layer 1"><line className="cls-1" x1="276.5" y1="1" x2="276.5" y2="534"/><path classNameNameNameNameNameNameNameName="cls-2" d="M.5,157c117,0,207,111.5,276,111.5,60,0,166,117.5,274,117.5"/><path className="cls-3" d="M550.5,378C442.88,330.65,346,359,262,322,178.35,285.21,107.67,183.16.5,136"/><path className="cls-3" d="M550.5,152C430,152,341.5,224.5,284,262.5c-81,49.5-98,122-282.5,122"/><circle className="cls-4" cx="276.5" cy="267.5" r="25.12"/><path className="cls-5" d="M280,253.34a2,2,0,0,1-1.91-1.91v-6.84a1.91,1.91,0,1,1,3.81,0v6.84A1.89,1.89,0,0,1,280,253.34Z"/><path className="cls-6" d="M296.3,250.76a2,2,0,0,1-2.47.56l-13.68-7.18a1.41,1.41,0,0,0-2,1.24V243.8a3.09,3.09,0,0,1,4.6-2.69l12.9,6.84A1.81,1.81,0,0,1,296.3,250.76Z"/><path className="cls-7" d="M296.07,253.34l-12.44,7a17,17,0,0,1-8.08,2.13v-3.7a10.65,10.65,0,0,0,5.5-1.46l13.79-7.62a1.16,1.16,0,0,0,0-2l1,.56A2.89,2.89,0,0,1,296.07,253.34Z"/><path className="cls-8" d="M285.64,277.56a1.87,1.87,0,0,1,2.58-.67l6.06,3.36a1.89,1.89,0,0,1-1.91,3.26l-5.94-3.37A1.91,1.91,0,0,1,285.64,277.56Z"/><path className="cls-9" d="M280,292.93a2,2,0,0,1,.78-2.36l13.12-8.3a1.41,1.41,0,0,0,0-2.35l1.24.67a3.14,3.14,0,0,1,.11,5.38l-12.45,7.85A2,2,0,0,1,280,292.93Z"/><path className="cls-10" d="M278.24,291.24l-.11-14a14.76,14.76,0,0,1,2.13-7.86l3.37,1.91a11.36,11.36,0,0,0-1.46,5.38l.11,15.59a1.2,1.2,0,0,0,1.79,1l-1,.56A3.17,3.17,0,0,1,278.24,291.24Z"/><path className="cls-11" d="M292.6,269.37l6,3.37a1.88,1.88,0,1,1-1.9,3.25l-6.06-3.25a1.86,1.86,0,0,1-.67-2.58A2,2,0,0,1,292.6,269.37Z"/><path className="cls-12" d="M300.56,257.49a1.92,1.92,0,0,1,2.24,1.9l-.45,14.7a3,3,0,0,1-4.59,2.57l-1.35-.78a1.32,1.32,0,0,0,2-1.12l.56-15.48A1.8,1.8,0,0,1,300.56,257.49Z"/><path className="cls-13" d="M302.8,259.39v1.13a1.2,1.2,0,0,0-1.79-1l-13.57,7.85a10.48,10.48,0,0,0-3.93,4l-3.25-1.79a15.61,15.61,0,0,1,5.72-5.72l12.23-7.07A3,3,0,0,1,302.8,259.39Z"/><path className="cls-14" d="M265.57,280.14l-6.17,3.37a2,2,0,0,1-2.69-.68,1.85,1.85,0,0,1,.67-2.58l6.17-3.47a2,2,0,0,1,2.69.67A1.79,1.79,0,0,1,265.57,280.14Z"/><path className="cls-15" d="M272,292.93a1.88,1.88,0,0,1-2.8.89L256.71,286a3.19,3.19,0,0,1,.11-5.38l1.35-.67a1.36,1.36,0,0,0,0,2.35l13.12,8.3A2,2,0,0,1,272,292.93Z"/><path className="cls-16" d="M269.05,293.71l-1-.56a1.2,1.2,0,0,0,1.79-1l.11-15.59a11.12,11.12,0,0,0-1.45-5.38l3.36-1.91a15.82,15.82,0,0,1,2.13,7.85l-.11,14A3.13,3.13,0,0,1,269.05,293.71Z"/><path className="cls-17" d="M261.76,270.16a1.94,1.94,0,0,1-.68,2.58l-5.83,3.36a1.86,1.86,0,0,1-2.58-.67,1.94,1.94,0,0,1,.68-2.58l5.83-3.36A1.86,1.86,0,0,1,261.76,270.16Z"/><path className="cls-18" d="M251.44,257.49a1.8,1.8,0,0,1,1.57,1.79l.45,15.48a1.32,1.32,0,0,0,2,1.12l-1.35.78a3.16,3.16,0,0,1-4.71-2.57l-.22-14.7A1.86,1.86,0,0,1,251.44,257.49Z"/><path className="cls-19" d="M269.72,251.43v-6.84a1.8,1.8,0,1,1,3.59,0v6.84a1.88,1.88,0,0,1-1.8,1.91A1.8,1.8,0,0,1,269.72,251.43Z"/><path className="cls-20" d="M255.36,250.76a1.85,1.85,0,0,1,.57-2.81l12.67-6.72a3,3,0,0,1,4.48,2.69v1.46a1.41,1.41,0,0,0-2-1.24l-13.46,7.18A1.81,1.81,0,0,1,255.36,250.76Z"/><path className="cls-21" d="M255.7,248.18l1-.56a1.06,1.06,0,0,0,0,1.9l13.68,7.63a11.79,11.79,0,0,0,5.5,1.46v3.7a15.67,15.67,0,0,1-8-2.13l-12.34-6.84A3,3,0,0,1,255.7,248.18Z"/><path className="cls-22" d="M253.79,256.7,266,263.77a15.76,15.76,0,0,1,5.83,5.72l-3.25,1.9a10.14,10.14,0,0,0-3.93-3.92l-13.57-7.85a1.18,1.18,0,0,0-1.9.9v-1.13A3,3,0,0,1,253.79,256.7Z"/></g></g></svg>